<svg width="143" height="812" viewBox="0 0 143 812" fill="none" xmlns="http://www.w3.org/2000/svg">
<g clip-path="url(#clip0)">
<path d="M68.3617 406.724C68.3617 406.724 59.4307 663.24 130.848 813.04C155.076 863.871 182.264 896.52 207.629 917.448C260.503 961.103 329.231 926.715 333.294 854.593C335.244 820.006 330.235 776.276 310.624 723.125C252.825 566.504 68.3617 406.724 68.3617 406.724Z" fill="#2F8C91"/>
<path d="M243.402 810.163C238.917 799.585 234.451 789.013 229.966 778.435C250.758 745.968 271.568 713.507 292.364 681.02C291.764 679.814 291.164 678.609 290.542 677.418C269.804 709.795 249.065 742.171 228.327 774.548C224.098 764.557 219.854 754.54 215.625 744.549C235.067 713.079 255.763 682.754 277.656 653.686C277.017 652.597 276.398 651.495 275.758 650.406C253.955 679.288 233.356 709.384 213.972 740.636C209.902 731.026 205.833 721.416 201.763 711.806C221.347 683.058 240.926 654.332 260.51 625.585C259.827 624.525 259.144 623.466 258.443 622.4C239.014 650.917 219.564 679.449 200.135 707.966C195.863 697.895 191.613 687.81 187.341 677.74C203.497 648.889 220.708 620.92 238.956 593.936C238.227 592.925 237.515 591.921 236.782 590.932C218.72 617.61 201.664 645.24 185.645 673.746C181.256 663.375 176.867 653.003 172.46 642.626C187.291 616.976 203.106 592.185 219.868 568.347C219.131 567.378 218.373 566.424 217.636 565.454C201.082 588.971 185.447 613.389 170.779 638.659C167.202 630.218 163.63 621.756 160.053 613.315C172.602 589.431 186.109 566.332 200.543 544.092C199.764 543.152 199.002 542.218 198.222 541.277C184.007 563.135 170.708 585.805 158.333 609.248C153.968 598.95 149.604 588.652 145.24 578.354C154.215 556.579 165.227 536.238 178.091 517.617C177.304 516.718 176.517 515.819 175.712 514.913C163.135 533.089 152.333 552.892 143.41 574.054C141.93 570.548 140.433 567.035 138.953 563.529C138.977 562.863 138.74 562.173 138.18 561.699C137.098 559.155 136.033 556.617 134.951 554.072C141.7 534.387 151.488 516.673 163.901 501.661C163.093 500.776 162.302 499.897 161.494 499.013C149.478 513.595 139.868 530.63 133.032 549.524C129.764 541.797 126.493 534.091 123.225 526.364C129.864 510.926 137.487 496.236 146.066 482.351C145.236 481.481 144.424 480.616 143.594 479.746C135.31 493.144 127.913 507.302 121.423 522.117C118.379 514.945 115.356 507.758 112.312 500.586C118.134 491.35 123.935 482.129 129.758 472.893C130.71 471.369 131.701 469.837 132.653 468.313C131.819 467.463 131.004 466.619 130.188 465.775C128.762 468.051 127.307 470.273 125.888 472.508C120.806 480.561 115.741 488.619 110.658 496.672C108.083 490.595 105.521 484.545 102.945 478.468C106.824 469.09 111.041 459.938 115.626 451.062C114.775 450.206 113.919 449.371 113.082 448.541C108.789 456.842 104.795 465.375 101.122 474.126C98.12 467.034 95.1148 459.962 92.1311 452.876C94.7152 447.167 97.5132 441.641 100.561 436.308C99.6877 435.466 98.8289 434.651 97.9879 433.842C95.2637 438.633 92.6998 443.587 90.3393 448.675C88.5227 444.402 86.7239 440.134 84.9073 435.86C86.4154 432.482 87.9057 429.097 89.4102 425.739C88.5193 424.891 87.6569 424.097 86.8123 423.308C85.5812 426.085 84.3502 428.862 83.1228 431.619C80.412 425.235 77.7192 418.857 75.0121 412.452C70.8492 408.704 68.5501 406.724 68.5501 406.724C68.5501 406.724 68.4331 409.837 68.3437 415.57C71.3595 422.689 74.3753 429.808 77.3911 436.927C74.4056 434.973 71.3335 433.294 68.2035 431.835C68.2067 433.097 68.2063 434.38 68.1986 435.704C72.2062 437.659 76.1233 440.018 79.9031 442.83C82.0142 447.792 84.1038 452.768 86.215 457.73C80.3974 453.917 74.4135 450.723 68.2633 448.145C68.2665 449.408 68.2876 450.677 68.3013 451.986C74.7762 454.761 81.1022 458.269 87.1723 462.471C87.5753 462.761 87.9647 462.807 88.3188 462.732C92.186 471.882 96.0569 481.011 99.9241 490.16C89.652 484.458 79.2462 479.189 68.7319 474.318C68.7672 475.613 68.7988 476.929 68.8483 478.251C80.0763 483.474 91.1812 489.178 102.127 495.349C105.612 503.563 109.092 511.797 112.576 520.011C98.3784 512.426 84.0327 505.247 69.5964 498.472C69.6459 499.794 69.7168 501.101 69.7805 502.45C84.8949 509.565 99.8935 517.119 114.755 525.127C119.027 535.197 123.295 545.288 127.567 555.359C108.99 544.604 90.1347 534.668 71.0415 525.543C71.1267 526.877 71.2118 528.211 71.2934 529.565C91.0789 539.058 110.611 549.442 129.841 560.68C132.658 567.318 135.472 573.977 138.289 580.615C116.629 572.723 94.9692 564.832 73.3094 556.94C73.4197 558.239 73.53 559.538 73.6367 560.858C95.8106 568.947 117.988 577.015 140.18 585.11C145.637 597.999 151.093 610.888 156.55 623.777C130.138 608.631 103.17 595.121 75.7682 583.313C75.9069 584.665 76.0493 585.997 76.188 587.349C104.229 599.506 131.806 613.419 158.792 629.066C163.799 640.866 168.787 652.66 173.79 664.481C142.968 652.527 112.128 640.568 81.3059 628.615C81.5018 629.965 81.6799 631.309 81.8795 632.638C113.162 644.771 144.444 656.903 175.731 669.015C177.639 673.516 179.548 678.017 181.439 682.512C183.763 687.981 186.066 693.464 188.39 698.934C154.466 686.64 120.525 674.34 86.6019 662.046C86.8372 663.387 87.0688 664.75 87.322 666.098C121.638 678.526 155.968 690.98 190.284 703.408C193.861 711.849 197.437 720.291 201.013 728.732C165.571 719.986 130.128 711.241 94.6817 702.516C94.9778 703.835 95.2739 705.154 95.5878 706.48C131.123 715.235 166.655 724.011 202.191 732.766C202.391 732.812 202.562 732.806 202.734 732.799C207.843 744.873 212.956 756.927 218.065 769.002C179.822 758.322 141.584 747.622 103.341 736.943C103.727 738.293 104.109 739.663 104.494 741.012C142.95 751.764 181.407 762.517 219.867 773.249C223.695 782.298 227.527 791.327 231.356 800.376C193.769 794.749 156.162 789.136 118.575 783.509C119.079 784.834 119.586 786.138 120.111 787.448C157.754 793.073 195.412 798.724 233.055 804.349C237.121 813.979 241.208 823.596 245.274 833.226C209.049 832.413 172.717 829.215 136.442 823.666C137.146 825.037 137.835 826.381 138.546 827.711C174.653 833.138 210.814 836.234 246.867 836.945C253.488 852.559 260.087 868.186 266.708 883.8C234.274 883.172 201.768 880.714 169.288 876.503C170.363 877.914 171.427 879.277 172.51 880.647C204.268 884.655 236.046 886.952 267.733 887.521C267.922 887.52 268.097 887.493 268.262 887.419C271.054 893.983 273.825 900.562 276.617 907.126C250.816 907.956 225.019 908.766 199.236 909.603C200.569 910.841 201.909 912.038 203.235 913.208C228.217 912.402 253.2 911.597 278.179 910.812C280.925 917.317 283.689 923.828 286.438 930.313C288.661 929.309 290.852 928.165 292.982 926.934C292.223 925.131 291.464 923.328 290.705 921.525C304.684 901.957 318.663 882.39 332.638 862.843C332.949 860.557 333.174 858.219 333.35 855.843C318.595 876.473 303.859 897.108 289.101 917.758C286.649 911.941 284.176 906.138 281.725 900.321C298.983 875.718 316.226 851.087 333.484 826.484C333.394 824.648 333.271 822.779 333.13 820.904C315.463 846.107 297.792 871.331 280.107 896.528C276.293 887.506 272.475 878.504 268.661 869.481C288.698 842.02 308.717 814.552 328.754 787.091C328.462 785.534 328.17 783.977 327.846 782.388C307.583 810.163 287.338 837.945 267.079 865.7C263.74 857.841 260.423 849.966 257.084 842.106C256.992 841.879 256.896 841.672 256.804 841.445C276.776 810.83 298.183 781.617 320.937 753.887C320.556 752.517 320.156 751.141 319.739 749.759C296.838 777.57 275.297 806.889 255.179 837.585C254.753 836.569 254.328 835.554 253.898 834.559C253.845 834.324 253.753 834.097 253.632 833.925C250.843 827.34 248.055 820.755 245.27 814.15C264.454 779.329 285.135 745.78 307.228 713.561C306.699 712.272 306.192 710.968 305.646 709.672C283.346 741.886 262.65 775.408 243.402 810.163Z" fill="#286F7F"/>
<path d="M143.254 436.096C143.254 436.096 247.365 303.735 273.899 182.229C282.902 140.989 283.485 107.802 280.31 81.9554C273.7 28.0387 229.546 6.82053 199.586 43.1322C185.212 60.5511 170.382 86.8759 158.402 126.698C123.121 243.982 143.254 436.096 143.254 436.096Z" fill="#BAE3DD"/>
<path d="M222.563 118.731C220.431 126.995 218.315 135.246 216.183 143.51C194.201 148.916 172.206 154.316 150.223 159.721C150.019 160.711 149.826 161.705 149.633 162.699C171.562 157.31 193.49 151.921 215.407 146.527C213.401 154.334 211.38 162.153 209.374 169.96C188.379 175.605 167.281 179.933 146.132 182.87C145.985 183.826 145.839 184.782 145.696 185.72C166.725 182.811 187.715 178.572 208.59 173.011C206.664 180.512 204.722 188.025 202.796 195.525C182.812 199.635 162.815 203.741 142.831 207.851C142.72 208.821 142.612 209.773 142.512 210.748C162.349 206.673 182.186 202.599 202.023 198.525C199.991 206.396 197.973 214.255 195.941 222.126C177.44 228.267 158.821 233.329 140.114 237.286C140.045 238.235 139.973 239.202 139.904 240.151C158.405 236.263 176.827 231.292 195.126 225.259C193.044 233.355 190.958 241.468 188.864 249.56C172.208 254.758 155.45 258.921 138.631 262.027C138.589 262.968 138.544 263.927 138.502 264.868C155.092 261.821 171.63 257.74 188.057 252.658C186.355 259.252 184.665 265.851 182.964 272.445C168.016 278.017 152.958 282.588 137.809 286.184C137.791 287.134 137.773 288.085 137.743 289.03C152.632 285.519 167.453 281.042 182.141 275.612C180.071 283.656 178 291.7 175.929 299.745C163.408 306.236 150.537 310.788 137.505 313.362C137.502 314.299 137.511 315.241 137.509 316.179C150.242 313.695 162.798 309.3 175.065 303.102C174.361 305.847 173.661 308.574 172.945 311.314C172.678 311.66 172.502 312.172 172.579 312.747C172.069 314.724 171.555 316.717 171.045 318.694C160.328 325.353 149.036 329.195 137.619 330.078C137.627 331.02 137.652 331.949 137.661 332.892C148.736 332.006 159.692 328.425 170.128 322.237C168.575 328.27 167.026 334.286 165.473 340.319C156.473 344.765 147.32 348.231 138.06 350.734C138.093 351.686 138.117 352.615 138.138 353.562C147.083 351.16 155.91 347.847 164.616 343.642C163.17 349.248 161.723 354.853 160.292 360.447C154.09 362.035 147.873 363.637 141.671 365.226C140.647 365.498 139.614 365.747 138.59 366.019C138.626 366.953 138.662 367.887 138.702 368.804C140.223 368.41 141.749 368.054 143.255 367.672C148.676 366.282 154.086 364.888 159.508 363.498C158.29 368.236 157.072 372.975 155.854 377.713C150.451 380.519 144.989 382.963 139.482 385.089C139.526 386.045 139.585 386.988 139.637 387.91C144.807 385.932 149.913 383.667 154.986 381.088C153.554 386.625 152.139 392.149 150.707 397.685C147.327 399.261 143.91 400.598 140.465 401.716C140.525 402.66 140.584 403.603 140.651 404.512C143.751 403.52 146.819 402.327 149.858 400.974C148.998 404.314 148.138 407.654 147.277 410.994C145.293 411.938 143.296 412.878 141.308 413.839C141.375 414.804 141.45 415.735 141.517 416.644C143.149 415.861 144.789 415.1 146.421 414.317C145.134 419.31 143.852 424.286 142.565 429.279C142.989 433.708 143.251 436.102 143.251 436.102C143.251 436.102 144.517 434.499 146.793 431.473C148.229 425.919 149.652 420.361 151.091 414.79C151.662 417.568 152.383 420.237 153.214 422.818C153.703 422.147 154.209 421.465 154.726 420.73C153.685 417.372 152.862 413.836 152.275 410.15C153.28 406.266 154.269 402.395 155.274 398.511C156.388 403.907 157.826 409.093 159.567 414.004C160.049 413.312 160.542 412.624 161.052 411.924C159.24 406.703 157.776 401.169 156.707 395.397C156.639 395.013 156.482 394.745 156.302 394.58C158.137 387.438 159.983 380.3 161.818 373.158C164.187 382.147 166.78 390.98 169.594 399.675C170.08 398.966 170.581 398.244 171.074 397.5C168.086 388.21 165.35 378.757 162.861 369.101C164.513 362.675 166.165 356.25 167.825 349.846C171.225 362.114 174.835 374.24 178.642 386.218C179.136 385.474 179.614 384.743 180.111 383.982C176.122 371.443 172.361 358.732 168.841 345.853C170.874 337.982 172.895 330.106 174.924 322.252C179.035 338.743 183.6 354.963 188.582 370.898C189.068 370.132 189.553 369.366 190.039 368.6C184.894 352.076 180.209 335.246 176.001 318.096C177.345 312.901 178.673 307.717 180.013 302.539C186.621 319.283 193.232 336.011 199.84 352.755C200.299 351.997 200.757 351.24 201.219 350.464C194.446 333.317 187.685 316.174 180.908 299.043C183.496 288.988 186.088 278.916 188.677 268.86C194.566 292.23 201.366 315.04 209.017 337.209C209.483 336.416 209.941 335.602 210.411 334.792C202.613 312.077 195.709 288.701 189.739 264.717C192.118 255.5 194.485 246.277 196.861 237.077C205.98 261.289 215.1 285.502 224.231 309.72C224.67 308.879 225.105 308.056 225.543 307.215C216.286 282.647 207.016 258.075 197.759 233.507C198.668 229.999 199.567 226.486 200.477 222.978C201.58 218.701 202.684 214.424 203.773 210.16C214.159 236.356 224.536 262.53 234.922 288.725C235.341 287.858 235.756 287.008 236.175 286.141C225.675 259.656 215.175 233.171 204.667 206.665C206.369 200.071 208.059 193.472 209.76 186.878C222.204 212.027 234.656 237.198 247.099 262.347C247.483 261.466 247.867 260.585 248.239 259.699C235.76 234.48 223.281 209.26 210.802 184.041C210.731 183.901 210.653 183.795 210.567 183.723C212.992 174.298 215.417 164.873 217.853 155.452C230.789 183.274 243.729 211.078 256.665 238.9C257.025 237.953 257.386 237.006 257.734 236.055C244.727 208.093 231.713 180.109 218.706 152.147C220.521 145.091 222.337 138.035 224.157 130.962C238.786 155.697 253.407 180.41 268.037 205.145C268.331 204.153 268.617 203.14 268.899 202.143C254.25 177.382 239.601 152.62 224.964 127.863C226.893 120.346 228.835 112.832 230.765 105.315C246.658 126.662 261.669 149.37 275.739 173.302C275.962 172.17 276.173 171.033 276.381 169.914C262.34 146.143 247.365 123.618 231.518 102.402C234.655 90.1973 237.799 78.0147 240.936 65.8103C255.196 84.8803 268.79 104.964 281.686 125.973C281.76 124.594 281.815 123.245 281.87 121.897C269.226 101.418 255.903 81.836 241.948 63.2246C241.858 63.114 241.772 63.0426 241.674 62.9665C242.991 57.8352 244.32 52.7086 245.637 47.5773C257.51 62.0253 269.367 76.4859 281.24 90.9339C281.124 89.4986 280.999 88.0979 280.852 86.688C269.362 72.6916 257.873 58.6953 246.371 44.6944C247.677 39.615 248.982 34.5355 250.3 29.4607C248.904 28.7035 247.486 28.05 246.045 27.5002C245.684 28.9157 245.326 30.314 244.953 31.725C231.053 34.1434 217.165 36.5665 203.265 38.9849C202.233 40.0421 201.213 41.1602 200.22 42.3268C214.873 39.7738 229.538 37.2254 244.191 34.6724C243.019 39.2036 241.854 43.7566 240.682 48.2878C223.351 51.53 206.02 54.7722 188.681 57.9926C188.007 59.0406 187.328 60.1059 186.658 61.1931C204.412 57.8738 222.166 54.5545 239.917 51.2525C238.105 58.2911 236.293 65.3298 234.481 72.3684C214.794 75.5259 195.104 78.7006 175.418 81.8581C174.945 82.8543 174.469 83.8678 173.988 84.8986C193.9 81.6986 213.812 78.4986 233.723 75.2986C232.148 81.4354 230.556 87.5848 228.98 93.7216C228.943 93.8943 228.893 94.0625 228.843 94.2306C207.954 99.1098 186.962 102.428 165.951 104.162C165.587 105.126 165.234 106.094 164.87 107.058C185.975 105.362 207.072 102.085 228.059 97.2253C227.861 98.0108 227.648 98.809 227.45 99.5946C227.377 99.7535 227.339 99.9263 227.328 100.091C226.007 105.24 224.675 110.383 223.354 115.532C201.17 123.129 178.813 129.194 156.344 133.694C156.073 134.695 155.803 135.696 155.532 136.697C178.018 132.297 200.378 126.271 222.563 118.731Z" fill="#97C9CE"/>
<path d="M178.23 321.871C177.977 321.912 177.725 321.985 177.485 322.041C177.447 322.058 177.408 322.044 177.371 322.061C177.131 322.118 176.891 322.174 176.664 322.245C176.639 322.246 176.601 322.263 176.576 322.264C176.324 322.337 176.084 322.393 175.845 322.48C175.794 322.483 175.744 322.516 175.693 322.518C175.454 322.605 175.214 322.661 174.975 322.749C174.937 322.766 174.887 322.768 174.849 322.785C174.61 322.872 174.371 322.959 174.132 323.047L174.12 323.063C173.88 323.15 173.629 323.253 173.403 323.356C173.366 323.373 173.328 323.39 173.29 323.407C173.064 323.509 172.838 323.611 172.612 323.713C172.575 323.73 172.537 323.747 172.487 323.78C172.261 323.883 172.023 324.001 171.797 324.103C171.785 324.119 171.772 324.104 171.759 324.12C171.534 324.222 171.321 324.34 171.108 324.457C171.07 324.474 171.058 324.49 171.02 324.507C170.808 324.624 170.595 324.741 170.37 324.874C170.332 324.891 170.294 324.908 170.257 324.925C170.044 325.043 169.819 325.176 169.619 325.308C169.607 325.324 169.582 325.325 169.557 325.357C169.344 325.474 169.132 325.622 168.933 325.754C168.92 325.77 168.907 325.755 168.895 325.771C168.695 325.903 168.483 326.052 168.284 326.184C168.246 326.201 168.221 326.233 168.196 326.234C167.996 326.366 167.81 326.513 167.61 326.645C167.598 326.661 167.56 326.678 167.548 326.694C167.149 326.989 166.764 327.299 166.379 327.609C166.366 327.625 166.329 327.642 166.317 327.658C166.13 327.805 165.957 327.967 165.783 328.129C165.771 328.145 165.746 328.177 165.721 328.178C165.349 328.503 165.015 328.842 164.681 329.181C164.669 329.197 164.669 329.197 164.657 329.213C164.496 329.39 164.335 329.536 164.175 329.713C164.163 329.729 164.15 329.745 164.138 329.761C163.978 329.938 163.83 330.099 163.67 330.276C163.374 330.629 163.079 330.981 162.809 331.333C162.797 331.349 162.785 331.365 162.785 331.365C162.65 331.541 162.528 331.732 162.406 331.892L162.393 331.908C162.137 332.274 161.918 332.624 161.699 333.005L161.687 333.021C161.578 333.195 161.481 333.385 161.397 333.559L161.385 333.575C161.108 334.128 160.869 334.664 160.681 335.23L160.669 335.246C160.493 335.795 160.356 336.327 160.269 336.857L160.257 336.873C160.223 337.044 160.215 337.215 160.195 337.401C160.167 337.759 160.163 338.084 160.186 338.439C160.203 338.609 160.208 338.763 160.251 338.932C160.251 338.932 160.251 338.932 160.264 338.947C160.605 341.162 162.144 343.002 165.186 344.068C179.1 348.973 194.118 336.477 199.393 331.46C198.493 334.748 197.644 338.034 196.822 341.35C196.262 343.618 195.728 345.885 195.194 348.152L194.456 351.325C192.53 359.733 190.681 368.17 188.665 376.535C188.574 376.462 188.483 376.388 188.404 376.298C188.156 376.076 187.922 375.869 187.674 375.647C187.53 375.514 187.388 375.412 187.244 375.278C187.023 375.086 186.802 374.925 186.581 374.733C186.425 374.615 186.269 374.498 186.113 374.381C185.893 374.22 185.685 374.042 185.477 373.896C185.321 373.779 185.166 373.661 184.997 373.56C184.79 373.414 184.569 373.253 184.35 373.122C184.194 373.005 184.039 372.918 183.871 372.817C183.651 372.687 183.444 372.541 183.224 372.41C183.069 372.324 182.901 372.222 182.758 372.12C182.539 371.99 182.319 371.86 182.087 371.745C181.932 371.659 181.777 371.572 181.635 371.501C181.403 371.387 181.171 371.272 180.926 371.143C180.784 371.072 180.643 371 180.501 370.929C180.23 370.8 179.973 370.687 179.703 370.559C179.587 370.517 179.484 370.46 179.38 370.402C179.007 370.247 178.635 370.092 178.249 369.954C178.224 369.955 178.198 369.925 178.172 369.926C177.826 369.801 177.479 369.676 177.132 369.551C177.017 369.509 176.889 369.483 176.773 369.442C176.517 369.36 176.26 369.277 176.017 369.21C175.876 369.169 175.735 369.129 175.594 369.088C175.364 369.036 175.133 368.952 174.903 368.9C174.762 368.859 174.608 368.835 174.455 368.81C174.225 368.758 174.008 368.72 173.778 368.668C173.624 368.643 173.471 368.619 173.33 368.578C173.113 368.541 172.896 368.503 172.679 368.466C172.526 368.441 172.372 368.416 172.219 368.392C172.002 368.354 171.773 368.333 171.569 368.31C171.416 368.286 171.276 368.276 171.122 368.251C170.893 368.23 170.677 368.223 170.447 368.202C170.307 368.192 170.167 368.183 170.027 368.173C169.798 368.151 169.556 368.146 169.314 368.141C169.187 368.146 169.073 368.135 168.933 368.125C168.666 368.121 168.386 368.132 168.119 368.128C168.043 368.131 167.954 368.119 167.865 368.139C167.51 368.153 167.154 368.168 166.799 368.183C166.748 368.185 166.71 368.202 166.672 368.188C166.367 368.201 166.063 368.244 165.759 368.257C165.645 368.277 165.531 368.297 165.416 368.286C165.176 368.312 164.96 368.336 164.733 368.377C164.593 368.398 164.479 368.418 164.34 368.439C164.125 368.464 163.923 368.503 163.72 368.542C163.581 368.564 163.442 368.585 163.316 368.621C163.114 368.66 162.911 368.7 162.734 368.738C162.595 368.759 162.457 368.811 162.318 368.833C162.128 368.887 161.938 368.91 161.749 368.964C161.61 368.986 161.472 369.038 161.333 369.059C161.143 369.113 160.954 369.168 160.777 369.206C160.651 369.242 160.5 369.279 160.374 369.316C160.185 369.37 160.009 369.439 159.819 369.493C159.693 369.529 159.555 369.582 159.429 369.618C159.24 369.672 159.051 369.757 158.862 369.812C158.749 369.863 158.623 369.899 158.51 369.95C158.297 370.036 158.095 370.106 157.882 370.193C157.781 370.228 157.706 370.262 157.605 370.297C157.316 370.417 157.027 370.538 156.739 370.689C156.651 370.739 156.55 370.774 156.463 370.824C156.275 370.909 156.074 371.011 155.886 371.096C155.761 371.163 155.648 371.214 155.522 371.281C155.36 371.365 155.209 371.433 155.059 371.533C154.934 371.6 154.809 371.667 154.683 371.734C154.546 371.817 154.408 371.9 154.258 371.968C154.133 372.035 154.008 372.133 153.883 372.2C153.746 372.284 153.62 372.351 153.496 372.449C153.371 372.516 153.246 372.614 153.121 372.681C153.009 372.763 152.871 372.846 152.759 372.928C152.635 373.026 152.51 373.093 152.385 373.191C152.273 373.273 152.161 373.355 152.037 373.453C151.912 373.551 151.8 373.633 151.676 373.732C151.564 373.814 151.465 373.911 151.353 373.993C151.228 374.091 151.116 374.173 151.005 374.286C150.906 374.383 150.806 374.449 150.72 374.53C150.595 374.628 150.484 374.741 150.372 374.823C150.285 374.904 150.211 374.969 150.124 375.05C149.69 375.455 149.27 375.875 148.888 376.308C148.827 376.388 148.765 376.437 148.703 376.517C148.592 376.63 148.494 376.758 148.396 376.886C148.334 376.966 148.273 377.046 148.199 377.111C148.101 377.239 148.015 377.351 147.917 377.479C147.855 377.559 147.794 377.639 147.733 377.718C147.647 377.83 147.549 377.958 147.476 378.085C147.415 378.165 147.366 378.229 147.317 378.324C147.245 378.451 147.159 378.563 147.086 378.69C147.037 378.754 146.989 378.848 146.953 378.927C146.88 379.054 146.808 379.181 146.735 379.308C146.699 379.387 146.65 379.451 146.614 379.53C146.541 379.656 146.482 379.798 146.409 379.925C146.373 380.004 146.349 380.067 146.313 380.146C146.254 380.288 146.181 380.414 146.121 380.556C146.098 380.619 146.086 380.666 146.063 380.729C146.003 380.871 145.943 381.013 145.897 381.169L145.885 381.185C145.684 381.735 145.559 382.282 145.486 382.827C145.487 382.858 145.475 382.905 145.464 382.952C145.443 383.108 145.434 383.247 145.425 383.387C145.427 383.449 145.415 383.496 145.405 383.574C145.396 383.713 145.399 383.837 145.391 383.977C145.392 384.039 145.394 384.1 145.384 384.178C145.387 384.302 145.39 384.426 145.407 384.564C145.409 384.626 145.424 384.703 145.425 384.765C145.429 384.889 145.458 385.011 145.474 385.15C145.489 385.227 145.491 385.289 145.518 385.349C145.547 385.472 145.576 385.595 145.604 385.717C145.619 385.794 145.646 385.855 145.66 385.901C145.689 386.023 145.743 386.145 145.772 386.268C145.799 386.328 145.827 386.389 145.841 386.435C145.895 386.557 145.937 386.694 145.991 386.816C146.005 386.862 146.044 386.907 146.058 386.952C146.678 388.196 147.714 389.345 149.265 390.272C161.871 397.94 181.938 383.734 188.01 379.024C186.581 384.764 185.05 390.478 183.326 396.123L183.256 396.342C183.197 396.515 183.151 396.672 183.105 396.859C183.105 396.859 183.105 396.859 183.093 396.875L182.065 400.107C179.757 407.153 177.088 413.967 174.056 420.548C173.383 420.143 172.491 419.607 171.395 419.017C171.278 418.945 171.163 418.903 171.046 418.831C170.569 418.587 170.053 418.299 169.512 418.043C169.37 417.971 169.241 417.914 169.099 417.843C168.79 417.701 168.468 417.544 168.146 417.387C167.914 417.273 167.682 417.158 167.438 417.06C167.258 416.975 167.077 416.889 166.872 416.805C166.254 416.521 165.598 416.254 164.917 415.988C164.583 415.847 164.236 415.722 163.889 415.597C159.56 413.965 154.427 412.645 149.23 412.721C148.976 412.731 148.735 412.726 148.481 412.736C148.405 412.739 148.328 412.742 148.252 412.746C148.062 412.769 147.871 412.761 147.681 412.785C147.605 412.788 147.554 412.79 147.478 412.793C147.238 412.819 146.984 412.829 146.743 412.854C146.692 412.857 146.667 412.858 146.616 412.86C146.413 412.868 146.21 412.907 146.02 412.931C145.944 412.934 145.881 412.952 145.805 412.955C145.615 412.979 145.425 413.002 145.248 413.04C145.197 413.042 145.147 413.044 145.109 413.061C144.881 413.102 144.654 413.142 144.426 413.183C144.375 413.185 144.312 413.203 144.275 413.22C144.098 413.258 143.921 413.296 143.744 413.335C143.681 413.353 143.618 413.371 143.555 413.389C143.353 413.428 143.15 413.468 142.961 413.522C142.936 413.523 142.923 413.539 142.91 413.524C142.696 413.579 142.481 413.635 142.267 413.69C142.204 413.708 142.166 413.725 142.115 413.727C141.952 413.78 141.788 413.834 141.636 413.871C141.585 413.873 141.536 413.906 141.485 413.908C141.283 413.978 141.082 414.049 140.881 414.119C140.881 414.119 140.868 414.135 140.855 414.12C140.666 414.174 140.478 414.259 140.302 414.329C140.264 414.346 140.201 414.364 140.163 414.381C140.013 414.449 139.849 414.502 139.698 414.57C139.661 414.587 139.635 414.588 139.598 414.605C139.409 414.691 139.233 414.76 139.058 414.86C139.033 414.861 139.021 414.877 139.008 414.893C138.858 414.961 138.695 415.045 138.557 415.128C138.52 415.145 138.482 415.162 138.444 415.179C138.281 415.264 138.119 415.348 137.969 415.447L137.957 415.463C137.794 415.547 137.632 415.662 137.482 415.761C137.47 415.777 137.444 415.778 137.42 415.81C137.282 415.893 137.158 415.991 137.02 416.074C137.008 416.09 136.97 416.107 136.958 416.123C136.672 416.337 136.398 416.534 136.15 416.761C136.138 416.777 136.125 416.793 136.1 416.794C135.989 416.907 135.877 416.989 135.765 417.102C135.753 417.118 135.753 417.118 135.741 417.134C135.506 417.376 135.297 417.616 135.113 417.856C135.1 417.872 135.088 417.888 135.076 417.904C134.88 418.16 134.721 418.399 134.563 418.669C134.491 418.795 134.431 418.937 134.371 419.048C134.358 419.064 134.358 419.064 134.346 419.08C134.226 419.333 134.132 419.615 134.064 419.897L134.052 419.913C134.017 420.053 133.995 420.178 133.961 420.319C133.961 420.319 133.949 420.335 133.962 420.35C133.919 420.63 133.901 420.91 133.897 421.204L133.898 421.235C133.976 423.569 135.813 426.109 139.999 428.537C149.959 434.271 166.642 426.335 172.927 422.917C170.104 428.808 167.022 434.493 163.628 439.944L161.619 443.108C160.949 444.142 160.265 445.161 159.582 446.18C156.81 450.242 153.881 454.125 150.807 457.844C150.625 457.697 150.417 457.55 150.184 457.374C150.066 457.271 149.937 457.183 149.807 457.096C149.547 456.89 149.262 456.685 148.95 456.45C148.016 455.746 146.874 454.926 145.512 453.945C145.059 453.639 144.592 453.287 144.087 452.951C143.827 452.776 143.568 452.601 143.322 452.41C140.704 450.599 137.48 448.488 133.69 446.121C133.508 446.005 133.327 445.889 133.147 445.803C133.082 445.759 133.031 445.731 132.966 445.687C132.849 445.614 132.721 445.558 132.591 445.47C132.526 445.426 132.449 445.399 132.385 445.355C132.268 445.282 132.153 445.241 132.036 445.168C131.959 445.14 131.881 445.081 131.804 445.054C131.701 444.996 131.572 444.939 131.469 444.882C131.392 444.854 131.314 444.795 131.237 444.768C131.134 444.71 131.018 444.668 130.889 444.612C130.812 444.584 130.722 444.541 130.657 444.497C130.542 444.456 130.439 444.398 130.31 444.341C130.233 444.314 130.156 444.286 130.091 444.242C129.962 444.186 129.847 444.144 129.731 444.102C129.654 444.074 129.603 444.046 129.526 444.018C129.372 443.962 129.217 443.907 129.063 443.851C129.025 443.837 128.986 443.823 128.948 443.81C128.755 443.74 128.563 443.671 128.37 443.601C128.318 443.572 128.255 443.56 128.204 443.562C128.063 443.521 127.922 443.481 127.793 443.424C127.716 443.396 127.652 443.383 127.575 443.356C127.46 443.314 127.332 443.288 127.216 443.247C127.139 443.219 127.05 443.207 126.973 443.179C126.857 443.138 126.743 443.127 126.64 443.1C126.563 443.072 126.474 443.061 126.385 443.049C126.282 443.022 126.154 442.996 126.052 442.97C125.963 442.958 125.886 442.93 125.796 442.918C125.694 442.892 125.579 442.881 125.464 442.839C125.374 442.827 125.297 442.8 125.208 442.788C125.093 442.777 124.991 442.75 124.863 442.725C124.774 442.713 124.71 442.7 124.62 442.688C124.493 442.663 124.378 442.652 124.25 442.626C124.186 442.613 124.11 442.617 124.046 442.604C123.868 442.58 123.664 442.558 123.485 442.534C123.421 442.521 123.37 442.523 123.306 442.51C123.179 442.485 123.052 442.49 122.924 442.464C122.834 442.453 122.758 442.456 122.669 442.444C122.554 442.433 122.453 442.437 122.35 442.411C122.261 442.399 122.185 442.402 122.083 442.406C121.982 442.41 121.892 442.399 121.791 442.403C121.702 442.391 121.613 442.41 121.524 442.398C121.422 442.403 121.333 442.391 121.231 442.395C121.142 442.383 121.054 442.402 120.964 442.391C120.863 442.395 120.787 442.398 120.685 442.402C120.583 442.406 120.507 442.41 120.406 442.414C120.316 442.402 120.228 442.421 120.126 442.425C120.025 442.43 119.949 442.433 119.847 442.437C119.771 442.44 119.669 442.444 119.593 442.447C119.492 442.452 119.403 442.471 119.314 442.459C119.238 442.462 119.149 442.481 119.073 442.484C118.883 442.508 118.68 442.516 118.478 442.555C118.415 442.574 118.351 442.561 118.288 442.579C118.186 442.583 118.085 442.618 117.984 442.622C117.908 442.626 117.845 442.644 117.769 442.647C117.68 442.666 117.566 442.686 117.478 442.705C117.415 442.723 117.339 442.726 117.276 442.745C117.187 442.764 117.073 442.784 116.985 442.803C116.922 442.821 116.846 442.824 116.783 442.842C116.694 442.862 116.593 442.897 116.492 442.901C116.429 442.919 116.366 442.937 116.303 442.955C116.202 442.99 116.114 443.009 116.013 443.045C115.95 443.063 115.887 443.081 115.824 443.099C115.723 443.134 115.635 443.153 115.534 443.188C115.483 443.19 115.433 443.223 115.382 443.225C115.282 443.261 115.181 443.296 115.08 443.331C115.055 443.332 115.017 443.349 115.005 443.365C114.628 443.504 114.251 443.675 113.887 443.829C113.861 443.83 113.849 443.846 113.824 443.847C113.711 443.898 113.623 443.948 113.523 444.014C113.486 444.032 113.448 444.049 113.41 444.066C113.323 444.116 113.223 444.182 113.122 444.217C113.085 444.234 113.047 444.251 112.997 444.284C112.909 444.334 112.822 444.384 112.722 444.45C112.684 444.467 112.647 444.484 112.61 444.532C112.522 444.582 112.435 444.632 112.348 444.713C112.31 444.73 112.286 444.762 112.248 444.779C112.161 444.829 112.074 444.91 111.986 444.961C111.962 444.992 111.936 444.994 111.912 445.026C111.812 445.092 111.725 445.173 111.651 445.238C111.639 445.254 111.639 445.254 111.626 445.27C111.217 445.612 110.845 445.968 110.513 446.368C110.501 446.384 110.489 446.4 110.489 446.4C110.415 446.496 110.354 446.576 110.28 446.672C110.268 446.688 110.243 446.72 110.231 446.736C110.17 446.816 110.096 446.912 110.035 446.992C110.01 447.024 109.998 447.04 109.974 447.072C109.912 447.152 109.864 447.247 109.79 447.343C109.766 447.375 109.754 447.391 109.742 447.437C109.694 447.532 109.633 447.612 109.572 447.723C109.56 447.739 109.535 447.771 109.536 447.802C109.488 447.897 109.428 448.008 109.379 448.103C109.367 448.119 109.367 448.119 109.355 448.135C109.127 448.624 108.938 449.127 108.8 449.659C108.778 449.784 108.743 449.894 108.721 450.019C108.722 450.049 108.71 450.065 108.711 450.096C108.689 450.221 108.679 450.33 108.644 450.44C108.645 450.471 108.633 450.518 108.634 450.548C108.625 450.657 108.603 450.782 108.593 450.891C108.594 450.922 108.582 450.969 108.583 451C108.574 451.108 108.565 451.248 108.555 451.357C108.556 451.388 108.545 451.435 108.545 451.466C108.549 451.589 108.539 451.698 108.53 451.838C108.531 451.869 108.532 451.9 108.533 451.93C108.545 453.261 108.827 454.72 109.405 456.306C114.852 471.128 140.264 463.095 148.969 459.855C143.911 465.777 138.483 471.249 132.736 476.178C132.711 476.179 132.711 476.179 132.685 476.18L130.538 478.018C127.121 480.838 123.598 483.476 119.98 485.917C119.941 485.903 119.903 485.889 119.864 485.875C119.595 485.778 119.35 485.68 119.094 485.598C119.055 485.584 119.03 485.585 118.991 485.571C118.735 485.489 118.478 485.406 118.21 485.34C118.184 485.341 118.146 485.327 118.133 485.312C117.864 485.246 117.595 485.18 117.326 485.114C117.276 485.116 117.224 485.087 117.173 485.089C116.918 485.038 116.649 484.971 116.381 484.936C116.33 484.938 116.292 484.924 116.241 484.926C115.96 484.876 115.692 484.841 115.399 484.806L115.373 484.807C115.105 484.772 114.825 484.753 114.545 484.733C114.494 484.735 114.456 484.721 114.405 484.724C114.125 484.704 113.858 484.7 113.591 484.695C113.54 484.697 113.489 484.7 113.425 484.687C113.158 484.682 112.878 484.663 112.599 484.674C112.56 484.661 112.522 484.678 112.472 484.68C112.205 484.675 111.925 484.687 111.659 484.713C111.634 484.714 111.608 484.715 111.583 484.717C111.304 484.728 111.012 484.756 110.746 484.782C110.695 484.784 110.644 484.786 110.594 484.788C110.327 484.815 110.049 484.857 109.783 484.884C109.732 484.886 109.681 484.888 109.63 484.89C109.352 484.933 109.074 484.975 108.795 485.018C108.77 485.019 108.757 485.035 108.732 485.036C108.454 485.078 108.188 485.136 107.91 485.178C107.872 485.195 107.821 485.197 107.796 485.198C107.531 485.256 107.24 485.314 106.975 485.372C106.924 485.374 106.861 485.392 106.823 485.409C106.546 485.482 106.28 485.54 106.003 485.613C105.965 485.63 105.914 485.632 105.877 485.649C105.599 485.723 105.335 485.811 105.057 485.884C105.045 485.9 105.032 485.886 105.019 485.902C104.73 485.991 104.465 486.079 104.175 486.169C104.138 486.186 104.075 486.204 104.037 486.221C103.772 486.309 103.496 486.414 103.231 486.502C103.181 486.535 103.131 486.537 103.081 486.57C102.804 486.674 102.527 486.779 102.264 486.898C102.238 486.899 102.214 486.931 102.188 486.932C101.925 487.051 101.66 487.14 101.397 487.259C101.359 487.276 101.321 487.293 101.296 487.294C101.032 487.413 100.769 487.533 100.505 487.652C100.455 487.685 100.405 487.687 100.355 487.72C100.091 487.839 99.8406 487.974 99.577 488.093C99.5394 488.11 99.4895 488.143 99.4518 488.16C99.176 488.295 98.9255 488.429 98.6497 488.565C98.3869 488.715 98.1111 488.85 97.8484 489C97.8107 489.017 97.7608 489.05 97.7231 489.067C97.4727 489.202 97.2231 489.367 96.9726 489.501C96.9227 489.534 96.885 489.551 96.8351 489.584C96.5855 489.749 96.3351 489.883 96.0855 490.049C96.0478 490.066 96.0355 490.082 95.9979 490.099C95.7605 490.248 95.511 490.413 95.2736 490.562C95.2614 490.578 95.2237 490.595 95.2114 490.611C94.9618 490.776 94.7245 490.925 94.488 491.105C94.4381 491.139 94.4005 491.156 94.3505 491.189C94.1263 491.353 93.8767 491.518 93.6525 491.682C93.6149 491.699 93.5781 491.747 93.5404 491.764C93.304 491.944 93.0675 492.124 92.831 492.304L92.8188 492.32C92.5823 492.5 92.3458 492.68 92.1347 492.859C92.0971 492.876 92.0725 492.908 92.0349 492.925C91.8238 493.104 91.5996 493.269 91.3763 493.464C91.3263 493.497 91.3018 493.529 91.2519 493.562C91.0408 493.741 90.8175 493.936 90.6064 494.115C90.5819 494.147 90.5565 494.148 90.5319 494.18C90.3209 494.359 90.1229 494.553 89.9118 494.732C89.8996 494.748 89.8873 494.764 89.8619 494.765C89.664 494.959 89.4529 495.138 89.2549 495.332C89.2304 495.364 89.1805 495.397 89.156 495.429C88.958 495.623 88.7723 495.801 88.5744 495.994C88.5498 496.026 88.5122 496.044 88.4754 496.091C88.2774 496.285 88.0926 496.494 87.8947 496.688L87.8824 496.704C87.6976 496.913 87.5119 497.091 87.3271 497.3C87.3025 497.332 87.2903 497.348 87.2657 497.38C87.0932 497.573 86.9206 497.766 86.7481 497.959C86.7235 497.991 86.699 498.023 86.6622 498.071C86.4896 498.264 86.3302 498.471 86.1699 498.648C86.1454 498.68 86.1331 498.696 86.1086 498.728C85.9492 498.936 85.7766 499.129 85.6425 499.336L85.6303 499.352C85.4709 499.56 85.3237 499.752 85.1896 499.958C85.1651 499.99 85.1406 500.022 85.1283 500.038C84.9811 500.23 84.8471 500.437 84.7253 500.628C84.7008 500.66 84.6885 500.676 84.664 500.708C84.53 500.915 84.3959 501.121 84.2741 501.312C84.2619 501.328 84.2619 501.328 84.2496 501.344C84.1278 501.535 83.9938 501.742 83.8851 501.947C83.8729 501.963 83.8606 501.979 83.8483 501.995C83.7266 502.186 83.6179 502.392 83.5215 502.582C83.497 502.614 83.4979 502.645 83.4733 502.677C83.3769 502.866 83.2683 503.072 83.1719 503.262C83.1596 503.278 83.1605 503.309 83.136 503.341C82.9441 503.751 82.7767 504.13 82.6224 504.523C82.6102 504.539 82.611 504.57 82.5988 504.586C82.5278 504.775 82.4568 504.963 82.398 505.136C82.3858 505.152 82.3866 505.183 82.3621 505.215C82.2911 505.404 82.2455 505.591 82.1999 505.779C82.1999 505.779 82.1876 505.795 82.2008 505.81C82.1551 505.998 82.1095 506.185 82.0762 506.357L82.0771 506.388C82.0437 506.56 82.0104 506.731 81.9902 506.918C81.991 506.949 81.9788 506.965 81.9796 506.996C82.0915 507.363 82.0705 507.518 82.0625 507.689C82.0634 507.72 82.0634 507.72 82.0642 507.751C82.0483 508.092 82.0456 508.448 82.0673 508.772C82.0682 508.803 82.0682 508.803 82.0691 508.834C82.0865 509.004 82.1031 509.142 82.1328 509.296C82.1336 509.327 82.1468 509.342 82.1476 509.373C82.1773 509.526 82.207 509.68 82.2621 509.832C82.2621 509.832 82.2753 509.847 82.2761 509.878C82.3181 510.016 82.3732 510.168 82.4283 510.321L82.4414 510.336C82.4965 510.488 82.5639 510.625 82.6312 510.761C82.6444 510.776 82.6452 510.807 82.6583 510.822C82.7257 510.959 82.8053 511.079 82.8981 511.215C82.9112 511.23 82.9243 511.245 82.9375 511.26C83.004 511.365 83.0967 511.501 83.2017 511.62C84.3718 513.012 86.4438 513.932 89.6289 514.203C108.201 515.663 117.897 496.453 120.814 489.381C124.544 486.889 128.168 484.185 131.684 481.299L133.622 479.671C139.569 474.61 145.208 468.99 150.465 462.905C147.004 472.77 139.58 497.8 148.927 507.987C151.404 510.686 153.629 511.6 155.537 511.227C155.55 511.211 155.563 511.226 155.575 511.21C156.131 511.094 156.671 510.871 157.171 510.54L157.183 510.524C157.682 510.194 158.165 509.756 158.609 509.242L158.621 509.227C159.064 508.713 159.492 508.091 159.867 507.41C159.879 507.394 159.879 507.394 159.891 507.378C159.964 507.251 160.049 507.108 160.109 506.967C160.398 506.397 160.673 505.782 160.947 505.136C160.959 505.12 160.971 505.073 160.983 505.057C161.043 504.915 161.089 504.759 161.161 504.601C161.173 504.585 161.172 504.554 161.185 504.538C161.362 504.051 161.526 503.549 161.689 503.016C161.701 503 161.7 502.969 161.712 502.953C161.759 502.796 161.805 502.639 161.852 502.482C161.863 502.436 161.887 502.373 161.898 502.326C161.945 502.169 161.979 502.028 162.012 501.857C162.024 501.81 162.035 501.763 162.059 501.7C162.184 501.184 162.31 500.668 162.41 500.153C162.433 500.09 162.432 500.028 162.443 499.981C162.477 499.84 162.498 499.685 162.519 499.529C162.53 499.451 162.553 499.357 162.563 499.279C162.584 499.124 162.619 498.983 162.64 498.827C162.662 498.734 162.673 498.656 162.683 498.547C162.704 498.391 162.738 498.25 162.747 498.111C162.757 498.033 162.768 497.955 162.778 497.877C162.821 497.597 162.864 497.316 162.882 497.037C162.892 496.928 162.901 496.819 162.924 496.726C162.933 496.586 162.955 496.461 162.964 496.322C162.973 496.213 162.995 496.088 162.992 495.964C163.001 495.825 163.023 495.7 163.031 495.56C163.053 495.435 163.05 495.312 163.059 495.172C163.068 495.032 163.077 494.924 163.086 494.784C163.106 494.597 163.114 494.427 163.121 494.225C163.142 494.069 163.138 493.915 163.159 493.759C163.167 493.588 163.176 493.449 163.184 493.278C163.194 493.169 163.19 493.046 163.2 492.937C163.209 492.797 163.204 492.643 163.213 492.503C163.21 492.379 163.219 492.27 163.216 492.147C163.212 491.992 163.219 491.821 163.228 491.682C163.238 491.573 163.235 491.48 163.232 491.357C163.237 491.093 163.23 490.846 163.236 490.582C163.234 490.52 163.232 490.459 163.243 490.381C163.25 490.179 163.232 489.979 163.239 489.777C163.236 489.684 163.233 489.561 163.23 489.468C163.226 489.313 163.221 489.128 163.216 488.973C163.214 488.88 163.21 488.757 163.208 488.664C163.202 488.478 163.185 488.309 163.18 488.123C163.177 488.03 163.175 487.938 163.172 487.845C163.152 487.583 163.132 487.32 163.112 487.058C163.111 487.027 163.097 486.981 163.109 486.934C163.089 486.703 163.07 486.471 163.051 486.24C163.048 486.147 163.034 486.07 163.018 485.963C163 485.793 162.982 485.593 162.965 485.423C162.962 485.33 162.946 485.222 162.932 485.146C162.901 484.961 162.896 484.776 162.865 484.591C162.85 484.514 162.848 484.422 162.833 484.345C162.8 484.067 162.768 483.821 162.722 483.56C162.721 483.529 162.708 483.514 162.72 483.498C162.688 483.252 162.644 483.021 162.611 482.775C162.596 482.698 162.582 482.621 162.566 482.514C162.535 482.329 162.505 482.145 162.462 481.976C162.434 481.884 162.431 481.792 162.403 481.7C162.373 481.515 162.33 481.347 162.299 481.162C162.284 481.086 162.27 481.009 162.255 480.932C162.197 480.687 162.152 480.425 162.081 480.165C162.081 480.165 162.068 480.15 162.08 480.134C162.022 479.889 161.965 479.644 161.907 479.398C161.892 479.321 161.877 479.245 161.837 479.169C161.794 479 161.738 478.817 161.695 478.648C161.667 478.557 161.653 478.48 161.625 478.388C161.582 478.22 161.526 478.036 161.471 477.884C161.456 477.807 161.416 477.731 161.401 477.654C161.318 477.41 161.248 477.181 161.165 476.937C159.946 473.334 158.823 470.439 157.818 468.127C157.519 467.458 157.248 466.85 156.978 466.273C156.707 465.696 156.451 465.165 156.183 464.681C155.807 463.953 155.446 463.302 155.113 462.743C155.006 462.562 154.899 462.381 154.792 462.199C154.366 461.505 153.995 460.963 153.652 460.513C153.573 460.392 153.494 460.303 153.402 460.198C153.271 460.049 153.152 459.883 153.047 459.764C156.144 455.982 159.109 452.02 161.918 447.91L164.078 444.678C167.989 438.649 171.575 432.308 174.797 425.704C173.947 436.715 172.659 468.426 185.657 470.102C186.218 470.172 186.728 470.213 187.237 470.222C187.364 470.217 187.478 470.228 187.605 470.223L187.631 470.222C187.758 470.216 187.859 470.212 187.973 470.192L187.998 470.191C188.1 470.187 188.214 470.167 188.315 470.162L188.341 470.161C188.518 470.154 188.632 470.134 188.734 470.13L188.759 470.129C188.861 470.124 188.961 470.089 189.063 470.085C189.075 470.069 189.088 470.084 189.101 470.068C189.189 470.049 189.303 470.029 189.391 470.009C189.404 469.993 189.417 470.008 189.429 469.992C189.518 469.973 189.618 469.938 189.707 469.919C189.719 469.903 189.732 469.918 189.744 469.902C189.833 469.883 189.921 469.864 190.009 469.814C190.021 469.798 190.034 469.813 190.046 469.797C190.135 469.777 190.21 469.743 190.298 469.693C190.31 469.677 190.323 469.692 190.335 469.676C190.411 469.642 190.499 469.623 190.587 469.573C190.599 469.557 190.612 469.572 190.624 469.556C190.7 469.522 190.775 469.488 190.863 469.438C190.875 469.422 190.888 469.437 190.9 469.421C190.976 469.387 191.051 469.353 191.125 469.288C191.138 469.272 191.151 469.286 191.163 469.27C191.238 469.236 191.3 469.187 191.388 469.137C191.4 469.121 191.4 469.121 191.426 469.12C191.488 469.071 191.563 469.037 191.638 468.972C191.65 468.956 191.65 468.956 191.675 468.955C191.737 468.906 191.8 468.857 191.874 468.792C191.886 468.776 191.886 468.776 191.899 468.76C191.961 468.711 192.023 468.662 192.097 468.597C192.11 468.581 192.11 468.581 192.122 468.565C192.184 468.516 192.245 468.436 192.308 468.387C192.32 468.371 192.32 468.371 192.332 468.355C192.394 468.306 192.456 468.226 192.505 468.162L192.517 468.146C192.566 468.082 192.627 468.002 192.69 467.953L192.702 467.937C192.751 467.873 192.812 467.793 192.861 467.73L192.874 467.714C192.923 467.65 192.984 467.57 193.02 467.491C193.02 467.491 193.02 467.491 193.032 467.475C193.093 467.395 193.129 467.316 193.191 467.236C193.239 467.141 193.288 467.077 193.336 466.982C194.398 464.957 194.611 462.115 194.201 458.804C194.184 458.665 194.168 458.526 194.151 458.388C194.151 458.388 194.151 458.388 194.138 458.373C194.122 458.234 194.105 458.095 194.076 457.973L194.075 457.942C194.059 457.803 194.03 457.681 194.013 457.542C194 457.527 194.012 457.511 193.999 457.496C193.983 457.357 193.954 457.235 193.924 457.081C193.911 457.066 193.923 457.05 193.91 457.035C193.894 456.897 193.865 456.774 193.823 456.636C193.822 456.605 193.809 456.591 193.821 456.575C193.792 456.452 193.776 456.313 193.734 456.176C193.733 456.145 193.72 456.13 193.719 456.099C193.69 455.976 193.673 455.838 193.631 455.7C193.631 455.669 193.617 455.654 193.617 455.623C193.588 455.501 193.559 455.378 193.529 455.224C193.528 455.193 193.515 455.178 193.514 455.148C193.485 455.025 193.444 454.887 193.415 454.765C193.414 454.734 193.401 454.719 193.387 454.673C193.358 454.55 193.316 454.413 193.287 454.29C193.286 454.259 193.26 454.229 193.259 454.198C193.23 454.076 193.188 453.938 193.159 453.815C193.159 453.784 193.145 453.739 193.131 453.724C193.103 453.601 193.061 453.463 193.032 453.341C193.031 453.31 193.017 453.264 193.004 453.249C192.975 453.126 192.933 452.989 192.904 452.866C192.89 452.82 192.889 452.789 192.863 452.759C192.834 452.637 192.792 452.499 192.763 452.377C192.749 452.331 192.749 452.3 192.722 452.27C192.693 452.147 192.651 452.01 192.597 451.888C192.583 451.842 192.582 451.811 192.556 451.781C192.514 451.644 192.473 451.537 192.431 451.4C192.417 451.354 192.416 451.323 192.402 451.277C192.36 451.139 192.319 451.033 192.277 450.895C192.263 450.849 192.249 450.803 192.236 450.788C192.194 450.651 192.153 450.544 192.111 450.407C192.097 450.361 192.083 450.315 192.07 450.3C192.028 450.162 191.987 450.056 191.945 449.918C191.931 449.872 191.917 449.826 191.891 449.796C191.849 449.659 191.794 449.537 191.766 449.415C191.752 449.369 191.738 449.323 191.724 449.277C191.682 449.139 191.627 449.018 191.585 448.88C191.571 448.834 191.557 448.788 191.544 448.774C191.502 448.636 191.448 448.514 191.406 448.377C191.392 448.331 191.378 448.285 191.352 448.255C191.298 448.134 191.256 447.996 191.202 447.874C191.188 447.828 191.161 447.799 191.147 447.753C191.093 447.631 191.051 447.494 190.997 447.372C190.983 447.326 190.969 447.28 190.943 447.25C190.888 447.129 190.846 446.991 190.792 446.87C190.778 446.824 190.752 446.794 190.751 446.763C190.697 446.641 190.642 446.489 190.588 446.367C190.574 446.321 190.547 446.291 190.546 446.261C190.492 446.139 190.437 445.986 190.383 445.865C190.369 445.819 190.356 445.804 190.342 445.758C190.274 445.622 190.232 445.484 190.165 445.347C190.164 445.317 190.138 445.287 190.137 445.256C190.07 445.119 190.015 444.967 189.947 444.83C189.934 444.815 189.933 444.784 189.907 444.754C189.852 444.602 189.785 444.465 189.704 444.314C189.691 444.299 189.69 444.268 189.69 444.268C189.622 444.1 189.554 443.964 189.486 443.796C188.957 442.595 188.39 441.411 187.798 440.228C187.731 440.092 187.65 439.94 187.583 439.804C187.556 439.774 187.556 439.743 187.529 439.713C187.475 439.592 187.396 439.471 187.341 439.349C187.327 439.304 187.288 439.259 187.274 439.213C187.22 439.091 187.153 438.986 187.099 438.864C187.072 438.803 187.032 438.758 187.018 438.713C186.952 438.607 186.898 438.485 186.844 438.395C186.817 438.334 186.79 438.273 186.751 438.228C186.684 438.123 186.643 438.016 186.577 437.91C186.55 437.85 186.509 437.774 186.482 437.713C186.429 437.622 186.375 437.501 186.321 437.41C186.281 437.334 186.254 437.274 186.214 437.198C186.16 437.107 186.107 437.016 186.053 436.895C186.012 436.819 185.985 436.758 185.945 436.683C185.892 436.592 185.838 436.501 185.785 436.411C185.745 436.335 185.704 436.259 185.677 436.198C185.624 436.108 185.571 436.017 185.517 435.926C185.477 435.85 185.437 435.775 185.396 435.699C185.343 435.608 185.29 435.518 185.236 435.427C185.196 435.351 185.156 435.275 185.116 435.2C185.062 435.109 185.009 435.018 184.955 434.928C184.915 434.852 184.875 434.776 184.822 434.716C184.769 434.626 184.716 434.535 184.662 434.444C184.622 434.369 184.582 434.293 184.529 434.233C184.476 434.143 184.436 434.067 184.382 433.976C184.342 433.9 184.289 433.81 184.236 433.75C184.183 433.659 184.143 433.584 184.077 433.509C184.037 433.433 183.983 433.342 183.931 433.283C183.878 433.192 183.837 433.116 183.772 433.042C183.731 432.966 183.678 432.875 183.626 432.815C183.572 432.725 183.532 432.649 183.466 432.574C183.426 432.499 183.36 432.424 183.32 432.348C183.267 432.257 183.214 432.198 183.161 432.107C183.121 432.031 183.055 431.957 183.015 431.881C182.975 431.805 182.909 431.73 182.869 431.655C182.828 431.579 182.763 431.504 182.723 431.429C182.682 431.353 182.617 431.278 182.576 431.202C182.536 431.127 182.471 431.052 182.43 430.976C182.39 430.901 182.324 430.826 182.284 430.75C182.244 430.674 182.178 430.6 182.138 430.524C182.098 430.448 182.032 430.373 181.992 430.298C181.952 430.222 181.886 430.147 181.846 430.072C181.806 429.996 181.74 429.921 181.7 429.845C181.659 429.77 181.594 429.695 181.554 429.619C181.513 429.544 181.448 429.469 181.407 429.393C181.355 429.333 181.302 429.243 181.249 429.183C181.197 429.123 181.143 429.032 181.091 428.973C181.038 428.913 180.985 428.822 180.932 428.763C180.88 428.703 180.84 428.627 180.774 428.552C180.721 428.493 180.668 428.402 180.616 428.342C180.563 428.282 180.523 428.207 180.47 428.147C180.418 428.087 180.364 427.997 180.312 427.937C180.259 427.877 180.219 427.801 180.167 427.742C180.114 427.682 180.061 427.591 180.008 427.531C179.956 427.472 179.915 427.396 179.863 427.336C179.81 427.276 179.757 427.186 179.705 427.126C179.652 427.066 179.612 426.99 179.559 426.931C179.507 426.871 179.453 426.78 179.401 426.721C179.348 426.661 179.296 426.601 179.256 426.525C179.203 426.466 179.138 426.391 179.097 426.315C179.045 426.255 178.992 426.196 178.952 426.12C178.9 426.06 178.847 426 178.794 425.91C178.741 425.85 178.689 425.79 178.636 425.73C178.584 425.671 178.518 425.596 178.465 425.536C178.413 425.477 178.36 425.417 178.321 425.372C178.269 425.312 178.216 425.252 178.15 425.178C178.098 425.118 178.045 425.058 178.006 425.013C177.954 424.954 177.901 424.894 177.849 424.834C177.796 424.774 177.757 424.73 177.704 424.67C177.652 424.61 177.599 424.55 177.547 424.491C177.494 424.431 177.455 424.386 177.402 424.326C177.35 424.267 177.297 424.207 177.245 424.147C177.192 424.087 177.153 424.043 177.1 423.983C177.048 423.923 176.995 423.863 176.943 423.804C176.903 423.759 176.851 423.699 176.811 423.654C176.759 423.594 176.706 423.535 176.641 423.46C176.601 423.415 176.549 423.355 176.51 423.311C176.457 423.251 176.391 423.176 176.327 423.132C176.314 423.117 176.287 423.088 176.274 423.073C178.553 418.21 180.625 413.202 182.491 408.078C183.009 406.632 183.528 405.186 184.021 403.711L184.924 400.995C186.784 395.237 188.426 389.379 189.951 383.448C190.411 393.585 193.382 414.423 209.365 421.92C212.494 423.385 214.752 423.678 216.286 423.089C216.286 423.089 216.299 423.073 216.312 423.088C216.45 423.035 216.575 422.968 216.701 422.901C216.701 422.901 216.713 422.885 216.726 422.9C216.851 422.833 216.963 422.751 217.089 422.684C217.325 422.504 217.523 422.31 217.72 422.085C217.806 421.973 217.892 421.861 217.964 421.734L217.977 421.718C218.049 421.591 218.122 421.465 218.182 421.323C218.182 421.323 218.182 421.323 218.194 421.307C218.398 420.88 218.538 420.41 218.638 419.895C218.638 419.895 218.65 419.879 218.637 419.864C218.67 419.692 218.69 419.506 218.724 419.334C218.724 419.334 218.736 419.318 218.723 419.303C218.783 418.743 218.805 418.139 218.761 417.49L218.76 417.46C218.754 417.243 218.736 417.043 218.717 416.811L218.716 416.78C218.646 416.102 218.537 415.379 218.376 414.627C218.363 414.612 218.375 414.596 218.362 414.581C218.305 414.336 218.26 414.105 218.189 413.845C218.176 413.83 218.175 413.799 218.175 413.799C218.118 413.554 218.047 413.294 217.976 413.034L217.963 413.019C217.821 412.498 217.653 411.948 217.485 411.397C217.472 411.382 217.471 411.351 217.471 411.351C217.387 411.076 217.291 410.817 217.207 410.542C217.206 410.511 217.193 410.496 217.179 410.45C217.083 410.191 216.986 409.901 216.89 409.642C216.877 409.627 216.876 409.596 216.876 409.596C216.67 409.032 216.438 408.468 216.205 407.874C216.192 407.859 216.191 407.828 216.178 407.813C216.069 407.539 215.946 407.25 215.811 406.977C215.797 406.931 215.784 406.916 215.77 406.871C215.648 406.581 215.513 406.308 215.391 406.019C215.378 406.004 215.364 405.959 215.35 405.944C215.08 405.366 214.784 404.76 214.487 404.153C214.474 404.138 214.473 404.107 214.46 404.092C214.312 403.804 214.164 403.516 214.016 403.228C214.002 403.182 213.976 403.152 213.962 403.106C213.814 402.818 213.666 402.53 213.506 402.258C213.48 402.228 213.466 402.182 213.44 402.152C213.279 401.849 213.119 401.577 212.958 401.274C212.945 401.26 212.932 401.245 212.931 401.214C212.77 400.911 212.596 400.624 212.423 400.337C212.41 400.322 212.397 400.307 212.396 400.276C212.223 399.989 212.05 399.702 211.876 399.415C211.85 399.385 211.823 399.324 211.797 399.295C211.624 399.008 211.45 398.721 211.265 398.45C211.225 398.405 211.211 398.359 211.172 398.314C210.999 398.027 210.8 397.741 210.627 397.454C210.601 397.424 210.6 397.394 210.574 397.364C210.387 397.062 210.202 396.791 210.003 396.505C209.99 396.49 209.977 396.475 209.964 396.46C209.765 396.174 209.566 395.888 209.368 395.602C209.328 395.557 209.314 395.512 209.275 395.467C209.09 395.196 208.891 394.91 208.693 394.655C208.654 394.61 208.627 394.549 208.587 394.504C208.389 394.219 208.191 393.964 207.992 393.678C207.966 393.648 207.927 393.603 207.913 393.557C207.702 393.287 207.49 392.986 207.279 392.716L207.266 392.701C207.055 392.432 206.831 392.147 206.62 391.877C206.581 391.832 206.554 391.802 206.515 391.757C206.304 391.487 206.093 391.217 205.883 390.978C205.844 390.934 205.805 390.889 205.765 390.844C205.554 390.574 205.331 390.32 205.121 390.081C205.082 390.036 205.055 390.006 205.016 389.962C204.78 389.693 204.557 389.439 204.32 389.17C204.307 389.155 204.307 389.155 204.294 389.14C204.071 388.886 203.835 388.617 203.611 388.363C203.585 388.333 203.546 388.289 203.52 388.259C203.296 388.005 203.061 387.767 202.838 387.513C202.798 387.468 202.759 387.423 202.72 387.378C202.484 387.14 202.274 386.901 202.039 386.664C201.999 386.619 201.96 386.574 201.908 386.545C201.673 386.307 201.438 386.069 201.189 385.816C201.176 385.801 201.15 385.771 201.137 385.757C200.901 385.519 200.653 385.297 200.418 385.059C200.392 385.029 200.365 384.999 200.327 384.985C200.079 384.763 199.844 384.525 199.609 384.318C199.57 384.273 199.518 384.244 199.479 384.2C199.244 383.993 198.997 383.771 198.762 383.564C198.723 383.519 198.671 383.49 198.632 383.445C198.384 383.223 198.137 383.032 197.877 382.826C197.851 382.796 197.812 382.782 197.799 382.768C197.552 382.577 197.293 382.371 197.046 382.18C197.033 382.165 196.994 382.151 196.981 382.136C196.721 381.93 196.474 381.739 196.215 381.564C196.163 381.535 196.124 381.49 196.086 381.476C195.839 381.285 195.58 381.11 195.334 380.95C195.282 380.921 195.243 380.876 195.191 380.848C194.932 380.672 194.673 380.497 194.427 380.337C194.388 380.323 194.362 380.294 194.324 380.28C194.064 380.105 193.793 379.946 193.534 379.771C193.521 379.756 193.508 379.741 193.495 379.757C193.224 379.598 192.953 379.438 192.695 379.294C192.656 379.28 192.604 379.252 192.578 379.222C192.32 379.078 192.062 378.934 191.803 378.789C191.752 378.761 191.7 378.732 191.662 378.718C191.52 378.646 191.378 378.575 191.223 378.488C193.389 369.575 195.362 360.561 197.426 351.62L198.401 347.4C199.572 342.444 200.795 337.517 202.121 332.648C205.748 341.925 217.871 370.992 227.035 372.826C229.834 373.376 231.835 372.21 233.07 369.991C233.094 369.959 233.093 369.928 233.118 369.896C233.323 369.501 233.515 369.09 233.693 368.634C233.704 368.587 233.716 368.571 233.728 368.524C233.88 368.069 234.032 367.583 234.145 367.083C234.157 367.036 234.156 367.005 234.167 366.958C234.223 366.693 234.267 366.443 234.323 366.178C234.323 366.178 234.335 366.162 234.322 366.147C234.366 365.897 234.397 365.633 234.44 365.352C234.451 365.305 234.451 365.274 234.462 365.228C234.493 364.963 234.523 364.668 234.54 364.388C234.539 364.357 234.552 364.341 234.551 364.31C234.568 364.031 234.574 363.768 234.591 363.488C234.591 363.457 234.602 363.41 234.588 363.365C234.592 363.07 234.597 362.776 234.588 362.467C234.587 362.436 234.586 362.374 234.585 362.343C234.577 362.065 234.569 361.786 234.548 361.493C234.548 361.462 234.547 361.431 234.533 361.385C234.524 361.076 234.49 360.768 234.456 360.46C234.454 360.398 234.44 360.352 234.452 360.305C234.431 360.012 234.385 359.72 234.364 359.426C234.363 359.395 234.362 359.364 234.361 359.333C234.327 359.025 234.28 358.702 234.233 358.379C234.231 358.317 234.204 358.256 234.202 358.194C234.143 357.887 234.109 357.579 234.036 357.257C234.023 357.242 234.035 357.226 234.022 357.211C233.95 356.889 233.889 356.551 233.817 356.229C233.802 356.152 233.788 356.106 233.773 356.029C233.628 355.385 233.445 354.727 233.249 354.085C233.234 354.008 233.207 353.947 233.192 353.871C233.094 353.55 232.996 353.229 232.885 352.893C232.872 352.878 232.871 352.847 232.871 352.847C232.761 352.542 232.664 352.252 232.553 351.947C232.526 351.886 232.498 351.794 232.471 351.733C232.348 351.413 232.238 351.108 232.102 350.804C232.088 350.758 232.062 350.728 232.048 350.683C231.925 350.393 231.816 350.119 231.681 349.846C231.654 349.785 231.614 349.71 231.587 349.649C231.451 349.345 231.304 349.057 231.155 348.738C231.128 348.677 231.101 348.647 231.074 348.587C230.94 348.313 230.806 348.071 230.671 347.798C230.644 347.737 230.604 347.662 230.564 347.617C230.403 347.314 230.243 347.042 230.07 346.755C230.043 346.694 229.99 346.634 229.963 346.574C229.816 346.316 229.657 346.075 229.498 345.834C229.458 345.789 229.431 345.729 229.392 345.684C229.206 345.413 229.021 345.142 228.835 344.871C228.783 344.811 228.756 344.75 228.703 344.691C228.519 344.451 228.359 344.209 228.162 343.985C228.136 343.955 228.097 343.911 228.071 343.881C227.873 343.626 227.65 343.372 227.452 343.117C227.399 343.057 227.347 342.997 227.294 342.938C227.097 342.714 226.887 342.475 226.678 342.266C226.665 342.252 226.639 342.222 226.626 342.207C226.39 341.969 226.168 341.746 225.933 341.508C225.88 341.448 225.815 341.404 225.763 341.345C225.515 341.123 225.28 340.885 225.033 340.694C217.456 334.258 210.363 331.486 205.855 330.279C204.626 329.959 203.603 329.753 202.799 329.616C205.055 321.643 207.632 313.796 210.777 306.235L210.836 306.093C210.884 305.998 210.919 305.889 210.968 305.794L212.018 303.335C212.018 303.335 212.018 303.335 212.017 303.304C212.101 303.13 212.172 302.942 212.256 302.768L212.292 302.689C213.022 301.064 213.765 299.455 214.547 297.859C223.975 278.644 236.965 262.223 252.346 249.991C253.838 248.815 252.101 246.208 250.621 247.369C237.017 258.18 225.222 272.307 216.095 288.661C214.001 292.417 212.076 296.304 210.305 300.248L208.931 303.416C205.52 311.453 202.691 319.821 200.235 328.375C200.039 328.182 199.83 328.005 199.622 327.828C199.583 327.783 199.518 327.739 199.479 327.695C199.218 327.458 198.945 327.237 198.672 327.016C198.645 326.986 198.62 326.987 198.594 326.957C198.334 326.751 198.074 326.545 197.814 326.339C197.762 326.31 197.736 326.281 197.697 326.236C197.424 326.046 197.164 325.84 196.892 325.65C196.841 325.621 196.776 325.577 196.736 325.532C196.464 325.342 196.205 325.167 195.934 325.008C195.895 324.994 195.856 324.95 195.817 324.936C195.546 324.777 195.3 324.617 195.029 324.458C194.99 324.444 194.977 324.429 194.951 324.399C194.679 324.24 194.396 324.097 194.138 323.953C194.086 323.924 194.034 323.895 193.983 323.866C193.712 323.738 193.454 323.594 193.171 323.482C193.119 323.453 193.081 323.439 193.029 323.41C192.759 323.282 192.476 323.17 192.206 323.042L192.192 323.027C191.91 322.915 191.627 322.803 191.344 322.69C191.293 322.662 191.242 322.664 191.19 322.635C190.921 322.538 190.651 322.44 190.369 322.359C190.305 322.346 190.253 322.318 190.203 322.32C189.921 322.238 189.651 322.141 189.382 322.075C189.357 322.076 189.318 322.062 189.305 322.047C189.037 321.981 188.78 321.899 188.524 321.847C188.486 321.833 188.435 321.835 188.397 321.822C188.128 321.755 187.847 321.705 187.591 321.654C187.527 321.641 187.476 321.643 187.413 321.63C187.145 321.595 186.876 321.529 186.608 321.493C186.569 321.479 186.519 321.481 186.48 321.467C186.212 321.432 185.97 321.396 185.715 321.375C185.69 321.376 185.651 321.362 185.626 321.364C185.358 321.328 185.091 321.324 184.811 321.304C184.76 321.306 184.696 321.294 184.645 321.296C184.378 321.291 184.123 321.271 183.856 321.266C183.805 321.269 183.755 321.271 183.704 321.273C183.437 321.268 183.17 321.264 182.903 321.259L182.877 321.261C182.61 321.256 182.331 321.268 182.065 321.294C182.014 321.296 181.963 321.298 181.913 321.3C181.659 321.311 181.392 321.337 181.139 321.348C181.088 321.35 181.037 321.352 180.974 321.37C180.708 321.397 180.442 321.423 180.189 321.465C180.163 321.466 180.138 321.467 180.112 321.468C179.872 321.493 179.619 321.535 179.366 321.576C179.315 321.578 179.277 321.595 179.226 321.597C178.973 321.639 178.72 321.68 178.48 321.737C178.344 321.851 178.293 321.853 178.23 321.871Z" fill="#3D4775"/>
<path d="M96.3704 308.051C96.3704 308.051 201.721 177.007 223.659 64.2553C231.107 25.9985 229.885 -4.06963 225.002 -27.0958C214.834 -75.1096 165.828 -89.4643 135.406 -53.3536C120.816 -36.0368 106.23 -10.6094 95.4865 26.6881C63.8352 136.599 96.3704 308.051 96.3704 308.051Z" fill="#2F8C91"/>
<path d="M164.572 12.4105C162.733 20.1149 160.887 27.8076 159.048 35.512C135.539 42.8092 112.022 50.0947 88.5023 57.401C88.3389 58.3211 88.1755 59.2412 88.0289 60.1639C111.475 52.8889 134.922 45.6139 158.368 38.3389C156.628 45.6124 154.885 52.9066 153.144 60.1801C130.724 67.5905 108.106 73.8026 85.3631 78.7851C85.2661 79.6623 85.1524 80.5368 85.0555 81.414C107.679 76.4875 130.157 70.3496 152.461 63.0277C150.788 70.0248 149.115 77.0218 147.441 84.0188C126.019 89.9249 104.606 95.8218 83.1832 101.728C83.1198 102.61 83.0564 103.492 82.9999 104.386C104.252 98.5286 125.522 92.6735 146.774 86.8158C145.025 94.1516 143.258 101.485 141.509 108.821C121.817 116.403 101.927 123.021 81.8869 128.628C81.867 129.506 81.8403 130.373 81.8304 131.242C101.653 125.708 121.331 119.196 140.816 111.731C139.009 119.28 137.201 126.83 135.401 134.392C117.653 140.912 99.733 146.513 81.6983 151.163C81.6983 152.023 81.7151 152.886 81.7151 153.746C99.5162 149.167 117.196 143.677 134.711 137.281C133.243 143.428 131.764 149.584 130.295 155.731C114.421 162.398 98.3589 168.199 82.156 173.106C82.1895 173.972 82.2163 174.825 82.2498 175.69C98.1894 170.88 113.975 165.208 129.586 158.691C127.795 166.191 126.004 173.69 124.213 181.189C111.014 188.435 97.3273 193.96 83.358 197.701C83.4114 198.548 83.4649 199.395 83.5252 200.254C97.1708 196.612 110.539 191.272 123.469 184.325C122.856 186.876 122.249 189.438 121.636 191.988C121.362 192.329 121.214 192.805 121.317 193.32C120.876 195.174 120.429 197.017 119.989 198.872C108.762 206.068 96.7404 210.786 84.4226 212.835C84.4928 213.685 84.5562 214.523 84.6264 215.372C96.5696 213.361 108.233 208.918 119.193 202.181C117.846 207.804 116.508 213.419 115.16 219.043C105.66 224.05 95.946 228.195 86.0538 231.464C86.1408 232.317 86.221 233.157 86.308 234.009C95.8566 230.857 105.245 226.885 114.423 222.137C113.178 227.363 111.916 232.585 110.671 237.811C104.031 239.93 97.4076 242.052 90.7675 244.172C89.6764 244.525 88.5618 244.865 87.4707 245.219C87.5676 246.062 87.6577 246.893 87.7478 247.725C89.3794 247.198 91.0048 246.714 92.6165 246.206C98.4092 244.36 104.195 242.504 109.988 240.658C108.931 245.084 107.877 249.489 106.82 253.915C101.13 257.029 95.3519 259.864 89.4934 262.379C89.5971 263.233 89.7109 264.079 89.8178 264.913C95.2997 262.564 100.718 259.95 106.057 257.069C104.821 262.232 103.595 267.386 102.353 272.538C98.7731 274.328 95.1545 275.92 91.4831 277.293C91.6037 278.15 91.7273 278.987 91.8442 279.811C95.1353 278.572 98.4078 277.171 101.628 275.602C100.888 278.717 100.14 281.82 99.3996 284.935C97.2921 286.005 95.1914 287.086 93.0938 288.146C93.2212 289.015 93.3548 289.843 93.4815 290.658C95.2094 289.775 96.9373 288.892 98.6553 288.018C97.5475 292.67 96.4329 297.31 95.3152 301.97C95.9944 305.918 96.4045 308.051 96.4045 308.051C96.4045 308.051 97.6888 306.463 99.9883 303.48C101.227 298.296 102.466 293.112 103.705 287.928C104.48 290.372 105.409 292.711 106.453 294.963C106.948 294.295 107.452 293.618 107.977 292.923C106.673 289.995 105.575 286.897 104.726 283.624C105.585 280.007 106.46 276.392 107.319 272.775C108.828 277.539 110.666 282.056 112.833 286.326C113.327 285.658 113.815 284.979 114.323 284.281C112.066 279.753 110.174 274.909 108.688 269.82C108.593 269.476 108.41 269.268 108.197 269.14C109.794 262.481 111.381 255.832 112.978 249.174C116.047 257.043 119.356 264.747 122.877 272.292C123.368 271.592 123.869 270.883 124.363 270.162C120.611 262.093 117.111 253.829 113.878 245.393C115.305 239.41 116.742 233.417 118.169 227.434C122.528 238.154 127.123 248.73 131.923 259.136C132.417 258.415 132.894 257.691 133.392 256.949C128.374 246.044 123.589 234.961 119.053 223.704C120.803 216.368 122.562 209.023 124.312 201.687C129.689 216.152 135.532 230.316 141.816 244.165C142.296 243.421 142.776 242.677 143.267 241.923C136.769 227.553 130.752 212.831 125.228 197.803C126.38 192.967 127.543 188.121 128.695 183.285C136.791 197.698 144.887 212.11 152.983 226.523C153.437 225.785 153.891 225.047 154.354 224.3C146.07 209.541 137.775 194.79 129.484 180.019C131.729 170.635 133.973 161.251 136.218 151.867C143.92 172.357 152.552 192.245 162.078 211.441C162.537 210.662 162.987 209.892 163.447 209.112C153.728 189.43 144.939 169.04 137.138 148.015C139.187 139.419 141.244 130.834 143.303 122.229C154.54 143.12 165.783 164.022 177.02 184.913C177.449 184.108 177.885 183.314 178.304 182.518C166.9 161.315 155.496 140.112 144.082 118.918C144.864 115.64 145.646 112.361 146.435 109.094C147.383 105.108 148.348 101.125 149.296 97.1393C162.002 119.677 174.715 142.227 187.421 164.764C187.827 163.945 188.242 163.116 188.641 162.285C175.785 139.491 162.932 116.676 150.075 93.8815C151.544 87.7346 153.013 81.5877 154.482 75.4408C169.368 96.8247 184.254 118.209 199.15 139.583C199.515 138.747 199.881 137.911 200.239 137.063C185.309 115.63 170.389 94.1878 155.458 72.7548C155.373 72.6356 155.282 72.558 155.191 72.4803C157.295 63.6909 159.389 54.9105 161.494 46.1211C177.067 69.8502 192.63 93.5885 208.204 117.318C208.535 116.423 208.876 115.52 209.207 114.625C193.552 90.7559 177.896 66.8868 162.231 43.0269C163.808 36.44 165.376 29.8622 166.953 23.2753C184.173 44.0276 201.41 64.7826 218.63 85.5349C218.89 84.5978 219.14 83.6697 219.384 82.73C202.134 61.9517 184.887 41.1527 167.636 20.3744C169.319 13.3683 170.986 6.35962 172.669 -0.646517C191.077 16.9212 208.603 35.7984 225.176 55.8892C225.351 54.8329 225.523 53.7973 225.678 52.7592C209.144 32.8123 191.667 14.0699 173.307 -3.36301C176.021 -14.7353 178.751 -26.105 181.465 -37.4773C197.986 -21.8009 213.825 -5.1242 228.961 12.4647C228.96 11.2115 228.946 9.98822 228.925 8.75328C214.081 -8.38734 198.555 -24.634 182.397 -39.9259C182.299 -40.0152 182.198 -40.0837 182.084 -40.1224C183.22 -44.9078 184.373 -49.6906 185.509 -54.476C199.175 -42.7074 212.83 -30.9298 226.488 -19.1729C226.285 -20.4567 226.063 -21.7224 225.837 -22.9673C212.605 -34.3618 199.373 -45.7564 186.151 -57.1601C187.288 -61.8922 188.418 -66.6361 189.545 -71.3592C188.002 -71.8813 186.419 -72.3139 184.834 -72.6725C184.518 -71.3616 184.202 -70.0507 183.886 -68.7398C168.968 -65.0268 154.051 -61.3139 139.143 -57.61C138.084 -56.5505 137.049 -55.4236 136.024 -54.2527C151.76 -58.1593 167.489 -62.0777 183.235 -65.9934C182.216 -61.7635 181.214 -57.5311 180.195 -53.3012C161.603 -48.4817 143.008 -43.6415 124.416 -38.822C123.741 -37.8101 123.07 -36.7656 122.406 -35.7096C141.445 -40.6519 160.494 -45.6034 179.54 -50.534C177.966 -43.9679 176.402 -37.4109 174.827 -30.8447C153.675 -25.8318 132.53 -20.8072 111.379 -15.7943C110.918 -14.8346 110.457 -13.875 109.999 -12.8829C131.392 -17.9547 152.777 -23.0382 174.159 -28.1009C172.796 -22.3733 171.416 -16.6482 170.053 -10.9205C170.012 -10.757 169.98 -10.6025 169.938 -10.439C147.581 -3.73058 125.032 1.55773 102.37 5.42705C102.028 6.33068 101.694 7.24593 101.367 8.17286C124.137 4.33054 146.796 -0.951494 169.261 -7.63286C169.082 -6.89565 168.903 -6.15844 168.734 -5.43033C168.669 -5.28101 168.627 -5.11744 168.622 -4.96955C167.476 -0.175075 166.33 4.6194 165.174 9.42297C141.57 18.7233 117.693 26.6439 93.608 33.1951C93.3744 34.1257 93.124 35.0538 92.8973 35.9961C117.087 29.5459 140.961 21.646 164.572 12.4105Z" fill="#286F7F"/>
<path d="M166.484 136.498C182.128 139.431 202.339 128.143 209.505 123.712C203.594 134.165 198.259 144.784 193.525 155.568C141.173 158.465 93.0966 191.673 93.0966 191.673C93.0966 191.673 104.721 186.762 137.517 181.852C166.465 177.512 185.866 163.364 192.567 157.773C188.195 167.934 184.358 178.204 181.067 188.574C179.874 192.334 178.758 196.11 177.713 199.888C163.793 209.573 139.442 202.951 116.633 208.357C99.4678 212.419 83.8178 243.862 83.8178 243.862C83.8178 243.862 100.113 217.517 126.857 220.761C148.218 223.353 169.796 206.893 177.639 200.16C174.329 212.192 171.749 224.334 169.921 236.538C165.132 237.585 149.149 241.276 133.498 246.915C115.06 253.568 75.8538 277.74 75.8538 277.74C75.8538 277.74 93.064 277.064 116.671 270.089C135.742 264.446 162.96 243.038 169.767 237.528C168.282 247.677 167.304 257.869 166.842 268.096C162.128 269.806 146.191 275.675 129.841 282.797C110.363 291.287 66.3216 329.457 66.3216 329.457C66.3216 329.457 80.7864 323.189 111.829 310.152C138.513 298.936 161.013 275.57 166.806 269.226C166.422 278.448 166.451 287.693 166.905 296.952C164.161 303.58 158.416 323.49 164.696 364.375C172.076 412.459 177.507 427.17 177.507 427.17C177.507 427.17 189.077 339.154 169.709 297.404C169.282 289.011 169.225 280.789 169.466 272.736C174.451 280.563 192.911 308.318 217.639 330.388C246.721 356.334 256.192 362.779 256.192 362.779C256.192 362.779 216.677 307.591 197.61 292.033C182.564 279.764 172.921 273.523 169.518 271.425C169.912 260.428 170.908 249.748 172.388 239.433C177.344 247.008 196.985 275.226 219.81 284.682C246.277 295.648 259.703 318.26 259.703 318.26C259.703 318.26 251.349 292.876 218.759 271.669C191.725 254.073 176.799 242.197 172.494 238.646C174.477 225.112 177.293 212.195 180.744 199.947C184.528 207.019 197.113 228.221 217.779 240.894C242.861 256.279 267.503 284.699 267.503 284.699C267.503 284.699 243.923 240.318 215.017 217.804C194.17 201.566 184.942 198.235 181.405 197.64C185.418 183.731 190.223 170.688 195.437 158.589C198.006 165.153 207.457 186.315 229.242 206.413C255.447 230.597 275.76 249.242 275.76 249.242C275.76 249.242 226.879 171.065 196.075 157.096C201.325 145.108 206.973 134.07 212.702 124.047C214.402 130.07 220.72 148.031 238.271 161.791C259.66 178.557 265.99 189.846 272.805 206.123C272.805 206.123 263.401 169.748 248.699 156.291C231.499 140.555 217.948 134.007 212.913 123.681C216.741 116.988 220.599 110.767 224.363 105.018C254.675 58.8762 286.746 32.6891 287.069 32.4163C287.709 31.891 287.894 30.846 287.485 30.0566C287.427 29.9599 287.37 29.8633 287.302 29.774C286.851 29.2339 286.137 29.1298 285.569 29.5707C285.241 29.8305 252.863 56.2628 222.27 102.802C218.111 109.128 214.182 115.533 210.468 122.013C203.939 122.096 180.103 122.328 164.429 121.217C146.127 119.923 111.246 154.11 111.246 154.11C111.246 154.11 147.133 132.865 166.484 136.498Z" fill="#E5674E"/>
<path d="M5.58456 575.13C5.58456 575.13 35.8765 774.536 109.723 852.84C134.789 879.413 159.403 890.688 180.992 893.964C226.02 900.817 271.451 840.468 264.073 783.642C260.535 756.38 250.592 725.635 228.579 694.991C163.746 604.737 5.58456 575.13 5.58456 575.13Z" fill="#BAE3DD"/>
<path d="M191.796 794.826C186.991 789.005 182.186 783.211 177.381 777.389C187.968 742.346 198.565 707.287 209.151 672.244C208.542 671.624 207.922 671.02 207.301 670.417C196.739 705.372 186.177 740.327 175.627 775.266C171.083 769.779 166.54 764.264 161.996 758.776C171.742 725.158 182.551 691.794 194.44 658.789C193.818 658.267 193.195 657.746 192.583 657.236C180.753 690.049 169.95 723.221 160.22 756.631C155.854 751.361 151.488 746.063 147.122 740.793C157.351 709.187 167.592 677.565 177.821 645.96C177.165 645.487 176.519 645.026 175.851 644.569C165.694 675.94 155.536 707.311 145.378 738.682C140.803 733.133 136.228 727.612 131.654 722.063C139.363 692.073 147.965 662.241 157.458 632.622C156.788 632.22 156.109 631.808 155.439 631.406C146.032 660.692 137.493 690.196 129.837 719.846C125.126 714.153 120.404 708.448 115.705 702.738C122.895 675.842 130.933 649.114 139.808 622.625C139.127 622.267 138.435 621.899 137.754 621.541C128.987 647.663 121.034 674.03 113.909 700.543C110.076 695.897 106.232 691.267 102.398 686.621C108.168 662.199 114.765 637.923 122.157 613.815C121.453 613.49 120.749 613.165 120.057 612.823C112.774 636.511 106.264 660.398 100.561 684.382C95.8812 678.722 91.2019 673.062 86.5225 667.402C89.9812 646.372 95.1337 625.421 101.885 604.844C101.181 604.547 100.465 604.265 99.7603 603.967C93.1412 624.064 88.0792 644.489 84.5692 665.039C82.971 663.112 81.3832 661.195 79.7963 659.251C79.7136 658.739 79.4448 658.312 78.9604 658.248C77.8116 656.856 76.6522 655.452 75.5033 654.059C77.6328 635.715 82.2683 617.38 89.2163 599.783C88.5005 599.501 87.7839 599.247 87.068 598.966C80.3507 616.045 75.7429 633.787 73.446 651.558C69.9365 647.313 66.4374 643.079 62.9279 638.834C65.5797 623.788 69.0719 608.817 73.3597 593.985C72.6213 593.736 71.9047 593.482 71.1776 593.217C67.0231 607.54 63.6326 621.969 60.9957 636.494C57.737 632.544 54.4784 628.595 51.219 624.672C54.1572 614.766 57.0963 604.832 60.0345 594.926C60.5131 593.287 61.0134 591.642 61.492 590.003C60.7641 589.765 60.0362 589.528 59.3188 589.301C58.6018 591.733 57.8524 594.158 57.1361 596.562C54.5681 605.223 52.0113 613.867 49.4433 622.527C46.6857 619.196 43.9281 615.864 41.1705 612.533C42.6591 603.458 44.4605 594.406 46.531 585.385C45.7814 585.153 45.031 584.948 44.3023 584.737C42.3448 593.2 40.6468 601.655 39.2067 610.159C35.9901 606.254 32.7726 602.377 29.5559 598.472C30.6227 592.85 31.8941 587.248 33.3485 581.671C32.5981 581.466 31.8477 581.261 31.1183 581.078C29.7987 586.092 28.6515 591.119 27.6446 596.154C25.7019 593.803 23.7591 591.452 21.8164 589.101C22.4286 585.795 23.0521 582.472 23.6539 579.154C22.8817 578.954 22.1305 578.777 21.4011 578.594C20.9027 581.315 20.3825 584.041 19.8841 586.762C16.9805 583.246 14.0873 579.742 11.1837 576.227C7.56414 575.484 5.58637 575.131 5.58637 575.131C5.58637 575.131 5.94985 577.554 6.71099 581.955C9.93816 585.871 13.1766 589.771 16.4142 593.699C13.9405 593.694 11.4484 593.954 8.95094 594.405C9.12919 595.358 9.30666 596.339 9.51559 597.353C12.739 596.826 15.9516 596.684 19.1202 596.947C21.376 599.688 23.6325 602.401 25.8883 605.142C21.081 605.141 16.2146 605.7 11.3544 606.803C11.5544 607.751 11.7431 608.715 11.9311 609.707C17.0725 608.593 22.2178 608.105 27.2791 608.29C27.6136 608.307 27.9204 608.153 28.1643 607.932C32.3217 612.952 36.4678 617.988 40.6252 623.007C32.274 623.786 23.8901 624.955 15.4632 626.502C15.6736 627.461 15.8834 628.447 16.1148 629.429C25.1058 627.804 34.052 626.612 42.9859 625.86C46.7253 630.378 50.4648 634.896 54.1825 639.419C42.6723 640.737 31.1303 642.417 19.5677 644.443C19.7991 645.424 20.0314 646.378 20.2733 647.371C32.3789 645.245 44.4624 643.52 56.5125 642.211C61.087 647.759 65.6727 653.292 70.2368 658.829C55.0713 659.903 39.8083 661.749 24.4816 664.32C24.7348 665.296 24.988 666.273 25.2412 667.249C41.1207 664.617 56.9235 662.779 72.6491 661.765C75.6673 665.43 78.6863 669.068 81.694 672.723C64.6734 677.505 47.6632 682.298 30.6426 687.08C30.9079 688.012 31.1731 688.945 31.4488 689.889C48.8835 684.982 66.3069 680.092 83.7311 675.174C89.5803 682.249 95.4401 689.336 101.289 696.411C79.7562 698.029 58.0386 701.203 36.2355 705.87C36.5217 706.825 36.8297 707.775 37.1264 708.741C59.4387 704.023 81.6527 700.868 103.702 699.319C109.06 705.815 114.429 712.294 119.777 718.778C95.4548 725.033 71.1329 731.288 46.7996 737.558C47.1406 738.487 47.4711 739.404 47.8121 740.333C72.4934 733.98 97.1859 727.611 121.867 721.258C123.904 723.737 125.951 726.2 127.987 728.679C130.473 731.692 132.959 734.706 135.445 737.693C108.786 745.247 82.1475 752.796 55.4876 760.351C55.8616 761.258 56.2251 762.154 56.5991 763.061C83.553 755.424 110.507 747.786 137.483 740.144C141.316 744.79 145.16 749.42 148.993 754.066C121.749 765.07 94.4838 776.08 67.24 787.084C67.6478 787.942 68.0556 788.8 68.4747 789.642C95.7949 778.606 123.115 767.571 150.436 756.535C150.589 756.471 150.721 756.386 150.832 756.278C156.315 762.907 161.799 769.537 167.272 776.183C137.686 787.097 108.111 798.023 78.5257 808.938C78.9988 809.781 79.4718 810.624 79.9561 811.45C109.695 800.472 139.455 789.489 169.193 778.511C173.298 783.475 177.403 788.439 181.519 793.414C153.129 807.864 124.762 822.309 96.3726 836.759C96.9237 837.515 97.4966 838.266 98.059 839.006C126.481 824.535 154.904 810.064 183.315 795.609C187.691 800.89 192.057 806.188 196.434 811.47C169.753 828.898 142.637 844.562 115.226 858.413C115.93 859.106 116.646 859.783 117.351 860.449C144.621 846.589 171.576 830.923 198.126 813.525C205.229 822.105 212.31 830.689 219.413 839.269C195.537 854.933 171.343 869.269 146.916 882.254C147.906 882.799 148.885 883.304 149.865 883.81C173.723 871.039 197.36 856.958 220.686 841.614C220.829 841.512 220.94 841.404 221.063 841.28C224.05 844.884 227.026 848.505 230.014 852.11C211.213 865.599 192.412 879.06 173.611 892.549C174.77 892.822 175.908 893.072 177.068 893.289C195.274 880.241 213.479 867.192 231.696 854.127C234.652 857.698 237.608 861.269 240.553 864.856C242.054 862.976 243.492 861.03 244.867 859.016C244.042 858.024 243.227 857.043 242.413 856.035C249.859 834.19 257.294 812.362 264.741 790.517C264.633 788.62 264.47 786.723 264.253 784.852C256.406 807.882 248.547 830.928 240.7 853.957C238.068 850.76 235.415 847.567 232.783 844.37C241.897 817.062 251.01 789.754 260.146 762.44C259.806 761.089 259.456 759.726 259.084 758.369C249.746 786.343 240.408 814.318 231.06 842.281C226.965 837.328 222.871 832.376 218.776 827.423C229.524 796.568 240.262 765.701 251.01 734.846C250.575 733.817 250.129 732.777 249.673 731.726C238.807 762.936 227.94 794.146 217.074 825.356C213.501 821.044 209.93 816.705 206.357 812.392C206.252 812.281 206.159 812.153 206.065 812.025C216.319 778.805 227.816 745.92 240.521 713.5C240.037 712.646 239.542 711.808 239.059 710.954C226.264 743.504 214.665 776.536 204.332 809.897C203.872 809.351 203.413 808.778 202.953 808.232C202.882 808.071 202.777 807.959 202.661 807.891C199.663 804.276 196.676 800.644 193.678 797.028C202.747 760.992 213.085 725.176 224.678 689.679C224.104 688.955 223.53 688.231 222.957 687.507C211.278 722.998 200.908 758.808 191.796 794.826Z" fill="#97C9CE"/>
<path d="M174.72 736.829C189.867 728.938 212.403 734.065 220.473 736.307C212.462 727.568 205.012 718.453 198.137 709.009C144.936 722.478 90.064 703.894 90.064 703.894C90.064 703.894 102.711 705.231 136.643 699.929C166.588 695.247 188.89 703.512 196.718 707.088C190.319 698.16 184.439 688.939 179.076 679.448C177.131 676.017 175.279 672.531 173.481 669.03C157.592 663.564 134.397 677.94 110.43 679.614C92.3699 680.865 70.4524 653.9 70.4524 653.9C70.4524 653.9 92.0244 675.508 118.266 663.832C139.22 654.496 164.167 664.426 173.374 668.798C167.674 657.642 162.693 646.129 158.428 634.302C153.407 634.739 136.623 636.026 119.766 635.196C99.9193 634.222 55.7561 622.005 55.7561 622.005C55.7561 622.005 73.188 617.275 98.2968 616.962C118.574 616.69 150.166 629.885 158.092 633.341C154.6 623.515 151.604 613.481 149.12 603.243C144.043 602.992 126.876 602.038 109.032 599.93C87.7578 597.386 35.9679 572.475 35.9679 572.475C35.9679 572.475 51.7385 574.301 85.5108 577.792C114.545 580.785 141.76 597.435 148.835 602.068C146.631 592.828 144.847 583.439 143.464 573.898C139.394 568.027 129.689 549.645 127.946 506.179C125.887 455.073 128.425 438.444 128.425 438.444C128.425 438.444 157.426 524.121 146.193 572.54C147.412 581.183 148.97 589.558 150.817 597.636C154.279 588.122 167.36 554.175 187.861 524.043C211.973 488.59 220.209 479.095 220.209 479.095C220.209 479.095 191.384 547.475 175.288 569.255C162.591 586.414 154.132 595.796 151.106 598.988C153.673 610.026 156.776 620.533 160.307 630.54C163.801 621.315 177.959 586.503 199.04 569.754C223.481 550.335 232.504 523.175 232.504 523.175C232.504 523.175 229.124 551.552 200.55 583.287C176.853 609.624 164.206 626.35 160.57 631.295C165.237 644.398 170.609 656.615 176.49 667.968C178.907 659.608 187.359 634.163 205.635 614.808C227.805 591.327 246.974 554.781 246.974 554.781C246.974 554.781 232.033 607.215 207.423 639.118C189.672 662.137 181.055 668.402 177.625 670.119C184.405 682.98 191.802 694.704 199.441 705.334C200.728 697.857 206.049 673.437 223.99 646.199C245.557 613.443 262.288 588.154 262.288 588.154C262.288 588.154 228.588 682.806 200.374 706.628C208.004 717.147 215.874 726.574 223.61 734.952C224.142 728.311 226.931 708.085 241.859 688.632C260.052 664.916 264.18 651.479 267.828 632.823C267.828 632.823 265.561 672.688 253.438 690.946C239.256 712.307 226.938 723.203 223.908 735.25C229.066 740.828 234.17 745.939 239.113 750.592C278.683 787.927 316.082 804.423 316.442 804.596C317.199 804.925 317.585 805.936 317.32 806.872C317.292 807.001 317.232 807.104 317.188 807.209C316.835 807.894 316.135 808.231 315.481 807.958C315.102 807.805 277.343 791.135 237.42 753.518C231.996 748.415 226.78 743.138 221.77 737.73C215.197 739.681 191.186 746.931 175.644 752.976C157.507 760.019 115.694 736.293 115.694 736.293C115.694 736.293 155.972 746.572 174.72 736.829Z" fill="#FCF4DF"/>
<path d="M28.2034 223.842C28.2034 223.842 167.941 151.817 225.983 58.0221C245.68 26.1993 254.756 -2.08948 258.134 -25.5814C265.191 -74.5593 225.695 -110.493 185.929 -91.2897C166.858 -82.0816 145.045 -65.3934 122.689 -35.9816C56.8176 50.6953 28.2034 223.842 28.2034 223.842Z" fill="#1A4143"/>
<path d="M190.072 -17.2395C185.797 -10.9859 181.521 -4.74623 177.246 1.50737C153.491 -2.65546 129.733 -6.8322 105.966 -10.9912C105.506 -10.2183 105.047 -9.44545 104.602 -8.66242C128.292 -4.50849 151.982 -0.354586 175.673 3.79934C171.634 9.7013 167.585 15.621 163.546 21.5229C140.739 17.9694 118.158 13.219 95.8809 7.27662C95.4961 8.04069 95.0969 8.79464 94.7121 9.55874C116.862 15.4972 139.291 20.2514 161.963 23.8326C158.078 29.5107 154.193 35.1888 150.309 40.8669C128.914 36.388 107.531 31.9053 86.1364 27.4264C85.7802 28.2108 85.424 28.9951 85.0701 29.7934C106.294 34.238 127.533 38.6927 148.757 43.1373C144.688 49.0924 140.605 55.0374 136.537 60.9925C116.142 58.8617 95.8929 55.749 75.8514 51.6355C75.536 52.4363 75.2183 53.2232 74.9149 54.0203C94.7352 58.1007 114.755 61.212 134.924 63.3553C130.731 69.4811 126.537 75.607 122.346 81.7467C104.07 79.5364 85.9497 76.3998 68.0479 72.332C67.7566 73.1253 67.4795 73.9287 67.1882 74.7219C84.8547 78.7466 102.72 81.8753 120.743 84.0918C117.331 89.0806 113.908 94.0731 110.496 99.0618C93.8663 97.8561 77.3607 95.7633 61.0296 92.7824C60.7669 93.5959 60.502 94.3955 60.2394 95.209C76.2988 98.1581 92.5109 100.241 108.851 101.464C104.69 107.55 100.528 113.637 96.3662 119.724C81.9636 120.291 67.7009 119.045 53.7873 116.023C53.5487 116.829 53.3103 117.635 53.074 118.455C66.6609 121.419 80.5718 122.687 94.6308 122.271C93.2118 124.339 91.7951 126.421 90.3761 128.489C90.0127 128.676 89.7169 129.047 89.6359 129.57C88.6089 131.076 87.5797 132.569 86.5527 134.075C73.9522 135.511 61.4706 134.291 49.6249 130.474C49.4007 131.29 49.1743 132.092 48.9501 132.909C60.4436 136.587 72.5077 137.894 84.7121 136.758C81.5873 141.32 78.4745 145.879 75.3497 150.441C65.0534 150.657 54.8546 149.98 44.7918 148.412C44.5819 149.238 44.3698 150.05 44.16 150.876C53.8719 152.394 63.7167 153.08 73.634 152.954C70.7369 157.196 67.8255 161.428 64.9284 165.671C58.1992 164.549 51.4842 163.437 44.755 162.315C43.6474 162.136 42.5233 161.933 41.4157 161.754C41.2179 162.576 41.0179 163.384 40.8178 164.193C42.4732 164.464 44.1088 164.77 45.74 165.048C51.6092 166.03 57.4761 166.998 63.3452 167.98C60.8893 171.573 58.4433 175.147 55.9875 178.74C49.781 178.975 43.5901 178.912 37.4346 178.517C37.239 179.353 37.0556 180.186 36.8699 181.005C42.6285 181.378 48.4193 181.478 54.228 181.295C51.3604 185.484 48.505 189.669 45.6352 193.845C41.7884 193.837 37.9729 193.63 34.1843 193.194C34.003 194.041 33.8317 194.87 33.658 195.684C37.0573 196.066 40.4947 196.29 43.9414 196.335C42.2159 198.865 40.4881 201.381 38.7626 203.911C36.4923 203.921 34.2244 203.944 31.9662 203.951C31.7872 204.811 31.628 205.636 31.4664 206.447C33.3298 206.433 35.1933 206.419 37.0446 206.409C34.4662 210.186 31.8855 213.949 29.2949 217.73C28.5727 221.685 28.2215 223.842 28.2215 223.842C28.2215 223.842 29.922 222.973 33.0143 221.287C35.8917 217.08 38.769 212.873 41.6464 208.666C41.5208 211.279 41.5687 213.867 41.7518 216.427C42.4258 216.04 43.1118 215.65 43.822 215.251C43.6335 211.947 43.6889 208.581 44.0289 205.17C46.0314 202.231 48.0483 199.303 50.0508 196.365C49.8035 201.458 49.9374 206.476 50.4526 211.418C51.1266 211.031 51.7983 210.63 52.4941 210.222C51.9848 205 51.9126 199.656 52.291 194.273C52.3219 193.913 52.2266 193.635 52.0775 193.419C55.7783 188.018 59.467 182.621 63.1678 177.219C63.2812 185.899 63.6672 194.538 64.2993 203.128C64.9808 202.71 65.6745 202.287 66.3659 201.851C65.7024 192.671 65.3334 183.428 65.2634 174.15C68.582 169.292 71.9127 164.431 75.2313 159.574C75.5462 171.481 76.1238 183.364 76.9453 195.186C77.6367 194.75 78.3138 194.303 79.015 193.849C78.1667 181.466 77.5886 169.028 77.2952 156.544C81.3638 150.589 85.4445 144.63 89.5131 138.675C89.4817 154.507 89.9735 170.277 90.9719 185.962C91.6588 185.498 92.3457 185.034 93.0447 184.566C92.0293 168.302 91.5688 151.937 91.6579 135.516C94.3393 131.59 97.0328 127.66 99.7142 123.734C102.162 140.777 104.61 157.821 107.058 174.865C107.718 174.394 108.379 173.924 109.051 173.45C106.551 155.999 104.038 138.551 101.535 121.086C106.746 113.472 111.956 105.857 117.167 98.2424C117.199 120.708 118.278 143.051 120.399 165.169C121.079 164.663 121.748 164.161 122.428 163.655C120.296 141 119.246 118.122 119.304 95.1156C124.071 88.1372 128.841 81.1728 133.62 74.1906C136.716 98.6642 139.815 123.152 142.912 147.625C143.573 147.082 144.237 146.552 144.886 146.012C141.743 121.173 138.601 96.3333 135.446 71.4976C137.265 68.8363 139.083 66.175 140.904 63.5276C143.113 60.2907 145.335 57.064 147.544 53.8272C151.413 80.5007 155.284 107.188 159.153 133.862C159.798 133.294 160.455 132.722 161.097 132.141C157.179 105.161 153.271 78.1634 149.352 51.1835C152.764 46.1948 156.176 41.2061 159.588 36.2174C165.821 62.8369 172.055 89.4563 178.3 116.072C178.914 115.47 179.528 114.868 180.14 114.252C173.883 87.5669 167.638 60.8779 161.382 34.1926C161.345 34.0432 161.288 33.9293 161.232 33.8154C166.114 26.684 170.984 19.5563 175.866 12.4249C181.928 41.5258 187.977 70.6305 194.039 99.7314C194.641 99.0599 195.256 98.3845 195.859 97.7129C189.771 68.445 183.682 39.177 177.582 9.91281C181.241 4.56868 184.888 -0.77168 188.548 -6.11583C197.108 21.0025 205.682 48.131 214.243 75.2493C214.796 74.5056 215.337 73.7656 215.876 73.0118C207.296 45.8555 198.727 18.6814 190.148 -8.47486C194.045 -14.1567 197.927 -19.8487 201.824 -25.5306C212.539 -0.798753 222.012 24.732 230.21 50.9403C230.726 50.0472 231.233 49.1718 231.725 48.2863C223.513 22.2287 214.039 -3.1553 203.322 -27.7404C209.631 -36.9715 215.954 -46.1925 222.263 -55.4237C231.909 -33.3108 240.6 -10.5911 248.346 12.6442C248.769 11.4878 249.17 10.353 249.57 9.20421C241.938 -13.4818 233.385 -35.6598 223.936 -57.2499C223.878 -57.3777 223.809 -57.4879 223.719 -57.5765C226.368 -61.4635 229.032 -65.3404 231.682 -69.2274C240.067 -52.0418 248.44 -34.8525 256.823 -17.6808C257.074 -18.9588 257.301 -20.2291 257.519 -21.4818C249.399 -38.1218 241.28 -54.7618 233.172 -71.4056C235.804 -75.2432 238.434 -79.0948 241.054 -82.9287C239.834 -84.1253 238.548 -85.2575 237.234 -86.3227C236.504 -85.2602 235.774 -84.1977 235.043 -83.1352C220.281 -86.6225 205.518 -90.1099 190.768 -93.6011C189.45 -93.1148 188.131 -92.555 186.807 -91.9498C202.376 -88.2619 217.943 -84.588 233.524 -80.9039C231.168 -77.4748 228.828 -74.0356 226.472 -70.6065C208.008 -74.7759 189.535 -78.9276 171.071 -83.097C170.117 -82.4763 169.156 -81.8239 168.197 -81.1577C187.107 -76.8943 206.03 -72.6348 224.943 -68.3575C221.294 -63.031 217.656 -57.7084 214.007 -52.382C193.16 -57.559 172.315 -62.7221 151.468 -67.8992C150.726 -67.2277 149.984 -66.5562 149.234 -65.8531C170.318 -60.619 191.4 -55.3988 212.473 -50.1608C209.299 -45.5098 206.111 -40.869 202.936 -36.218C202.843 -36.0864 202.762 -35.9587 202.669 -35.8271C180.156 -39.9992 157.952 -45.5695 136.124 -52.5011C135.51 -51.8258 134.897 -51.1365 134.287 -50.4333C156.202 -43.427 178.505 -37.7997 201.106 -33.5529C200.694 -32.9558 200.282 -32.3588 199.883 -31.7656C199.773 -31.6581 199.68 -31.5265 199.625 -31.3924C196.964 -27.5016 194.302 -23.6109 191.628 -19.7163C167.11 -22.075 142.81 -25.8333 118.787 -30.9505C118.26 -30.2004 117.719 -29.4604 117.195 -28.6965C141.279 -23.4375 165.568 -19.6616 190.072 -17.2395Z" fill="#2F8C91"/>
</g>
<defs>
<clipPath id="clip0">
<rect width="812" height="143" fill="white" transform="translate(143) rotate(90)"/>
</clipPath>
</defs>
</svg>
